<svg width="25" height="25" viewBox="0 0 25 25" fill="none" xmlns="http://www.w3.org/2000/svg">
<path d="M12.453 6.11564C12.4822 5.21122 12.7313 3.87888 13.5983 3.0036C14.4031 2.19112 15.3828 1.79514 15.993 1.61411C16.2286 1.54422 16.4546 1.72186 16.443 1.96731C16.4022 2.83311 16.1745 4.1245 15.5871 4.81633C15.0334 5.46848 14.1427 6.3333 12.838 6.4788C12.6244 6.50262 12.4461 6.33041 12.453 6.11564Z" fill="white"/>
<path d="M14.6871 22.6695C15.3136 22.9095 15.947 23.1522 16.5203 23.1522C17.7467 23.1522 21.3178 20.3226 21.4464 17.3838C21.4531 17.2329 21.3629 17.0981 21.2311 17.0243C20.3227 16.516 18.8393 15.2504 18.7877 13.409C18.7275 11.2632 19.8049 9.55879 20.6204 8.85377C20.8039 8.69509 20.8669 8.41531 20.7031 8.23639C19.9612 7.42618 18.4686 6.31173 17.1069 6.33909C16.1161 6.35899 15.2235 6.72804 14.4575 7.04472C13.8698 7.28768 13.3567 7.49982 12.931 7.49982C12.5278 7.49982 12.0438 7.28905 11.4883 7.04713C10.7402 6.72134 9.86242 6.33909 8.87774 6.33909C7.05381 6.33909 3.45002 7.85156 3.45001 13.6904C3.45001 16.7857 6.64537 23.2343 9.34172 23.1522C9.92396 23.1522 10.5462 22.9111 11.1636 22.6719C11.7717 22.4363 12.375 22.2025 12.931 22.2025C13.4678 22.2025 14.0741 22.4347 14.6871 22.6695Z" fill="white"/>
</svg>
