<svg width="80" height="80" viewBox="0 0 80 80" fill="none" xmlns="http://www.w3.org/2000/svg">
<path d="M11.096 48.385H9.87298V13.174C9.81054 11.8705 10.2659 10.5952 11.1397 9.62606C12.0135 8.65688 13.235 8.0724 14.538 8H18.189C19.492 8.0724 20.7136 8.65685 21.5876 9.626C22.4616 10.5951 22.9171 11.8704 22.855 13.174V16.839H21.632V13.174C21.6934 12.1949 21.3664 11.231 20.7219 10.4914C20.0774 9.75182 19.1673 9.29607 18.189 9.223H14.538C13.5598 9.29607 12.6498 9.75186 12.0054 10.4915C11.3611 11.2311 11.0343 12.195 11.096 13.174V48.385Z" fill="#2E2629"/>
<path d="M61.58 65.2069H18.899C13.592 65.2069 9.00896 61.0069 7.90996 55.1369L5.86096 44.1899H74.618L72.569 55.1369C71.469 61.0069 66.887 65.2069 61.58 65.2069Z" fill="white"/>
<path d="M6.44503 44.801L8.36103 55.011C8.83293 57.6491 10.1435 60.0644 12.098 61.898C13.9304 63.6104 16.3382 64.5738 18.846 64.598H61.634C64.1422 64.5736 66.5502 63.6103 68.383 61.898C70.3374 60.0641 71.6477 57.6483 72.119 55.01L74.035 44.8L6.44503 44.801ZM61.634 65.818H18.846C16.0845 65.7922 13.4328 64.7326 11.414 62.848C9.2618 60.8284 7.81865 58.1683 7.29903 55.263L5.10803 43.578H75.374L73.18 55.264C72.6608 58.1694 71.2175 60.8296 69.065 62.849C67.0464 64.7337 64.3946 65.7934 61.633 65.819L61.634 65.818Z" fill="#2E2629"/>
<path d="M77.853 49.4819H2.61096V44.5179H77.853V49.4819Z" fill="#FEB2A8"/>
<path d="M3.095 48.855H77.37V45.113H3.095V48.855ZM78.465 50.078H2V43.89H78.464V50.078H78.465Z" fill="#2E2629"/>
<path d="M18.768 71.556H16.48L17.592 65.207H22.103L18.768 71.556Z" fill="white"/>
<path d="M17.251 70.944H18.441L21.134 65.818H18.148L17.248 70.944H17.251ZM19.18 72.167H15.795L17.121 64.595H23.158L19.18 72.167Z" fill="#2E2629"/>
<path d="M61.711 71.556H63.998L62.886 65.207H58.375L61.711 71.556Z" fill="white"/>
<path d="M62.0369 70.944H63.2279L62.3279 65.818H59.3439L62.0369 70.944ZM64.6829 72.167H61.2969L57.3199 64.595H63.3569L64.6829 72.167Z" fill="#2E2629"/>
<path d="M20.462 17.215C20.4265 17.2147 20.3914 17.222 20.359 17.2363C20.3266 17.2506 20.2976 17.2716 20.274 17.298L16.009 21.987C15.9758 22.0234 15.954 22.0687 15.9461 22.1173C15.9382 22.1659 15.9446 22.2157 15.9645 22.2608C15.9844 22.3058 16.017 22.3441 16.0583 22.3709C16.0995 22.3978 16.1477 22.412 16.197 22.412H24.564C24.6126 22.412 24.6602 22.398 24.7011 22.3716C24.742 22.3452 24.7744 22.3076 24.7944 22.2633C24.8145 22.219 24.8213 22.1698 24.8141 22.1217C24.807 22.0736 24.7861 22.0286 24.754 21.992L20.653 17.302C20.6295 17.2748 20.6005 17.253 20.5679 17.238C20.5353 17.223 20.4998 17.2152 20.464 17.215H20.462ZM24.562 23.634H16.197C15.911 23.6335 15.6313 23.55 15.3919 23.3937C15.1524 23.2374 14.9634 23.015 14.8478 22.7534C14.7322 22.4919 14.695 22.2024 14.7406 21.9201C14.7863 21.6378 14.9128 21.3748 15.105 21.163L19.369 16.475C19.5087 16.3208 19.6794 16.1979 19.87 16.1143C20.0606 16.0307 20.2667 15.9883 20.4748 15.9899C20.6829 15.9915 20.8883 16.0371 21.0775 16.1236C21.2668 16.2101 21.4356 16.3357 21.573 16.492L25.673 21.181C25.8599 21.3945 25.9814 21.6573 26.0229 21.9381C26.0644 22.2188 26.0241 22.5055 25.9069 22.764C25.7897 23.0224 25.6005 23.2417 25.362 23.3954C25.1235 23.5492 24.8457 23.631 24.562 23.631V23.634Z" fill="#2E2629"/>
<path d="M26.278 22.623H14.7V20.604H26.278V22.623Z" fill="white"/>
<path d="M15.358 22.051H25.713V21.251H15.358V22.051ZM26.935 23.274H14.135V20.032H26.935V23.274Z" fill="#2E2629"/>
<path d="M72.221 37.279H46.76V11.541H72.221V37.279Z" fill="white"/>
<path d="M47.3709 36.666H71.6089V12.151H47.3709V36.666ZM72.8319 37.889H46.1479V10.928H72.8319V37.889Z" fill="#2E2629"/>
<path d="M43.7581 9.59399V12.819H74.6191V9.59399H43.7581Z" fill="white"/>
<path d="M74.619 13.43H43.758C43.6777 13.43 43.5981 13.4142 43.5239 13.3834C43.4497 13.3527 43.3823 13.3076 43.3256 13.2507C43.2688 13.1939 43.2238 13.1264 43.1932 13.0522C43.1625 12.9779 43.1468 12.8984 43.147 12.818V9.59404C43.147 9.43186 43.2114 9.27633 43.3261 9.16165C43.4408 9.04697 43.5963 8.98254 43.7585 8.98254C43.9207 8.98254 44.0762 9.04697 44.1909 9.16165C44.3055 9.27633 44.37 9.43186 44.37 9.59404V12.207H74.008V9.59404C74.008 9.432 74.0723 9.27659 74.1869 9.162C74.3015 9.04742 74.4569 8.98304 74.619 8.98304C74.781 8.98304 74.9364 9.04742 75.051 9.162C75.1656 9.27659 75.23 9.432 75.23 9.59404V12.818C75.2301 12.8984 75.2144 12.9779 75.1838 13.0522C75.1531 13.1264 75.1081 13.1939 75.0514 13.2507C74.9946 13.3076 74.9272 13.3527 74.853 13.3834C74.7788 13.4142 74.6993 13.43 74.619 13.43Z" fill="#2E2629"/>
<path d="M72.221 31.164H46.76V11.541H72.221V31.164Z" fill="white"/>
<path d="M47.3709 30.551H71.6089V12.151H47.3709V30.551ZM72.8319 31.774H46.1479V10.928H72.8319V31.774Z" fill="#2E2629"/>
<path d="M76.687 9.33396H41.499C41.3368 9.33396 41.1812 9.26954 41.0666 9.15486C40.9519 9.04018 40.8875 8.88464 40.8875 8.72246C40.8875 8.56028 40.9519 8.40474 41.0666 8.29007C41.1812 8.17539 41.3368 8.11096 41.499 8.11096H76.687C76.8491 8.11096 77.0047 8.17539 77.1193 8.29007C77.234 8.40474 77.2985 8.56028 77.2985 8.72246C77.2985 8.88464 77.234 9.04018 77.1193 9.15486C77.0047 9.26954 76.8491 9.33396 76.687 9.33396Z" fill="#2E2629"/>
</svg>
