<svg width="80" height="80" viewBox="0 0 80 80" fill="none" xmlns="http://www.w3.org/2000/svg">
<path d="M9.03894 69.845H25.6719V71.693H9.03894V69.845Z" fill="white"/>
<path d="M9.51501 71.217H25.195V70.317H9.51501V71.217ZM26.148 72.17H8.56201V69.37H26.148V72.17Z" fill="#2E2629"/>
<path d="M17.832 69.8449H16.879V26.6169H17.832V69.8449Z" fill="#2E2629"/>
<path d="M12.505 8.47705H22.381L26.281 24.488H8.60596L12.506 8.47705H12.505Z" fill="white"/>
<path d="M9.213 24.01H25.673L22.006 8.952H12.879L9.213 24.01ZM26.885 24.963H8L12.131 8H22.756L26.886 24.964L26.885 24.963Z" fill="#2E2629"/>
<path d="M23.334 37.303H22.377V25.91H23.3299V37.303H23.334Z" fill="#2E2629"/>
<path d="M22.854 37.6281C22.854 37.6281 24.154 40.7901 22.854 40.7901C21.554 40.7901 22.854 37.6281 22.854 37.6281Z" fill="white"/>
<path d="M22.795 40.31C22.8087 40.3107 22.8224 40.3107 22.836 40.31C22.8519 40.3107 22.8678 40.3087 22.883 40.304C22.922 40.26 23.002 39.957 22.836 39.204C22.7103 39.5578 22.6953 39.9415 22.793 40.304L22.795 40.31ZM22.836 41.265C22.6719 41.2704 22.5091 41.2341 22.3629 41.1594C22.2167 41.0847 22.0918 40.9741 22 40.838C21.425 39.98 22.157 38.025 22.395 37.445C22.4302 37.3567 22.491 37.2809 22.5696 37.2275C22.6482 37.174 22.741 37.1453 22.836 37.145C22.9311 37.1453 23.0239 37.174 23.1025 37.2275C23.1811 37.2809 23.2419 37.3567 23.277 37.445C23.515 38.024 24.247 39.98 23.672 40.838C23.5801 40.9741 23.4553 41.0846 23.3091 41.1593C23.1629 41.2339 23.0001 41.2703 22.836 41.265Z" fill="#2E2629"/>
<path d="M70.6171 67.7801H35.701V42.4611H70.6171V67.7801Z" fill="#FEB2A8"/>
<path d="M36.178 67.298H70.137V42.937H36.178V67.298ZM71.09 68.251H35.225V41.984H71.09V68.256V68.251Z" fill="#2E2629"/>
<path d="M39.6539 71.694H36.9089V67.78H39.6539V71.694Z" fill="white"/>
<path d="M37.384 71.217H39.1759V68.256H37.384V71.217ZM40.129 72.17H36.429V67.303H40.129V72.17Z" fill="#2E2629"/>
<path d="M67.443 71.694H64.698V67.78H67.443V71.694Z" fill="white"/>
<path d="M65.174 71.217H66.966V68.256H65.174V71.217ZM67.919 72.17H64.219V67.303H67.919V72.17Z" fill="#2E2629"/>
<path d="M70.6171 54.42H35.701V53.467H70.6171V54.42Z" fill="#2E2629"/>
<path d="M68.304 39.952H56.821V37.636H68.304V39.952Z" fill="white"/>
<path d="M57.298 39.474H67.828V38.111H57.298V39.474ZM68.781 40.427H56.345V37.158H68.781V40.423V40.427Z" fill="#2E2629"/>
<path d="M67.556 34.579H56.074V32.262H67.557V34.579H67.556Z" fill="white"/>
<path d="M56.55 34.09H67.08V32.727H56.55V34.09ZM68.0331 35.043H55.597V31.774H68.0331V35.043Z" fill="#2E2629"/>
<path d="M66.33 37.172H54.847V34.855H66.33V37.172Z" fill="white"/>
<path d="M55.324 36.69H65.853V35.328H55.324V36.691V36.69ZM66.806 37.643H54.371V34.374H66.806V37.643Z" fill="#2E2629"/>
<path d="M54.8021 47.598H49.2081C49.1455 47.598 49.0835 47.5857 49.0257 47.5617C48.9679 47.5377 48.9153 47.5026 48.8711 47.4582C48.8269 47.4139 48.7919 47.3614 48.768 47.3035C48.7441 47.2456 48.7319 47.1836 48.7321 47.121C48.7321 46.9948 48.7822 46.8737 48.8715 46.7844C48.9607 46.6952 49.0818 46.645 49.2081 46.645H54.8021C54.9283 46.645 55.0494 46.6952 55.1386 46.7844C55.2279 46.8737 55.2781 46.9948 55.2781 47.121C55.2782 47.1836 55.266 47.2456 55.2421 47.3035C55.2182 47.3614 55.1832 47.4139 55.139 47.4582C55.0948 47.5026 55.0423 47.5377 54.9845 47.5617C54.9266 47.5857 54.8647 47.598 54.8021 47.598Z" fill="#2E2629"/>
<path d="M54.8021 61.5551H49.2081C49.1455 61.5551 49.0835 61.5427 49.0257 61.5187C48.9679 61.4947 48.9153 61.4596 48.8711 61.4153C48.8269 61.371 48.7919 61.3184 48.768 61.2605C48.7441 61.2026 48.7319 61.1406 48.7321 61.0781C48.7321 60.9518 48.7822 60.8307 48.8715 60.7415C48.9607 60.6522 49.0818 60.6021 49.2081 60.6021H54.8021C54.9283 60.6021 55.0494 60.6522 55.1386 60.7415C55.2279 60.8307 55.2781 60.9518 55.2781 61.0781C55.2782 61.1406 55.266 61.2026 55.2421 61.2605C55.2182 61.3184 55.1832 61.371 55.139 61.4153C55.0948 61.4596 55.0423 61.4947 54.9845 61.5187C54.9266 61.5427 54.8647 61.5551 54.8021 61.5551Z" fill="#2E2629"/>
</svg>
