<svg width="28" height="24" viewBox="0 0 28 24" fill="none" xmlns="http://www.w3.org/2000/svg">
<path d="M26.0004 5.98629C26.0004 5.75897 25.9101 5.54095 25.7493 5.3802C25.5886 5.21946 25.3706 5.12915 25.1432 5.12915H19.1432V3.50229C19.1524 3.03803 18.9771 2.58907 18.6558 2.25388C18.3344 1.91869 17.8932 1.72464 17.429 1.71429H2.00039C1.53614 1.72464 1.09496 1.91869 0.773587 2.25388C0.452219 2.58907 0.276906 3.03803 0.2861 3.50229V16.0166C0.276446 16.4811 0.451554 16.9305 0.772972 17.2661C1.09439 17.6017 1.53584 17.7959 2.00039 17.8063H2.01924C2.01924 17.8697 2.00039 17.9297 2.00039 17.9932C2.00039 19.1298 2.45192 20.2199 3.25564 21.0236C4.05937 21.8273 5.14946 22.2789 6.2861 22.2789C7.42274 22.2789 8.51283 21.8273 9.31656 21.0236C10.1203 20.2199 10.5718 19.1298 10.5718 17.9932C10.5718 17.9297 10.5564 17.8697 10.553 17.8063H15.7352C15.7352 17.8697 15.7147 17.9297 15.7147 17.9932C15.7131 18.5943 15.8381 19.1891 16.0814 19.7389C16.3247 20.2886 16.681 20.781 17.127 21.1841C17.5731 21.5871 18.099 21.8918 18.6705 22.0784C19.242 22.265 19.8464 22.3292 20.4443 22.2669C21.0423 22.2046 21.6204 22.0173 22.1412 21.7169C22.662 21.4166 23.1138 21.0101 23.4673 20.5238C23.8207 20.0374 24.0679 19.4822 24.1927 18.8941C24.3175 18.306 24.3172 17.6983 24.1918 17.1103H26.8575C27.0849 17.1103 27.3029 17.02 27.4636 16.8592C27.6244 16.6985 27.7147 16.4805 27.7147 16.2532L26.0004 5.98629ZM19.1432 6.85715H24.2861L24.9718 10.2977H19.1432V6.85715ZM6.2861 20.5492C5.7829 20.5448 5.29226 20.3915 4.876 20.1088C4.45973 19.826 4.13647 19.4263 3.94695 18.9602C3.75742 18.494 3.71011 17.9822 3.81097 17.4892C3.91183 16.9962 4.15636 16.544 4.51373 16.1898C4.87111 15.8355 5.32534 15.5949 5.81921 15.4983C6.31308 15.4018 6.82448 15.4535 7.28898 15.6471C7.75348 15.8407 8.15029 16.1674 8.42942 16.5861C8.70855 17.0048 8.85751 17.4968 8.85753 18C8.85618 18.3363 8.78859 18.669 8.65861 18.9791C8.52863 19.2892 8.33882 19.5707 8.10002 19.8074C7.86121 20.0441 7.5781 20.2315 7.26686 20.3588C6.95562 20.486 6.62235 20.5507 6.2861 20.5492ZM16.589 15.4286H16.5718H9.69924C9.30414 14.8954 8.78961 14.4621 8.19689 14.1636C7.60417 13.8651 6.94975 13.7096 6.2861 13.7096C5.62245 13.7096 4.96803 13.8651 4.37531 14.1636C3.78259 14.4621 3.26806 14.8954 2.87296 15.4286H2.85753C2.6302 15.4286 2.41218 15.3383 2.25144 15.1775C2.09069 15.0168 2.00039 14.7988 2.00039 14.5714V4.30458C2.00039 4.07725 2.09069 3.85923 2.25144 3.69849C2.41218 3.53774 2.6302 3.44744 2.85753 3.44744H16.5718C16.7991 3.44744 17.0172 3.53774 17.1779 3.69849C17.3387 3.85923 17.429 4.07725 17.429 4.30458V14.5714C17.429 14.5714 17.429 14.5817 17.429 14.5869C17.1117 14.8276 16.8291 15.1108 16.589 15.4286ZM20.0004 20.5474C19.4971 20.543 19.0064 20.3898 18.5901 20.1069C18.1738 19.8241 17.8505 19.4243 17.6611 18.9581C17.4716 18.4918 17.4244 17.9799 17.5254 17.4868C17.6264 16.9938 17.8711 16.5417 18.2286 16.1874C18.5862 15.8332 19.0406 15.5928 19.5346 15.4964C20.0285 15.4 20.54 15.4521 21.0045 15.6459C21.4689 15.8397 21.8656 16.1667 22.1445 16.5857C22.4235 17.0046 22.5721 17.4967 22.5718 18C22.5686 18.679 22.296 19.3289 21.8138 19.8069C21.3316 20.2849 20.6793 20.5519 20.0004 20.5492V20.5474ZM23.4084 15.4286C22.9263 14.7793 22.2687 14.2812 21.5131 13.993C20.7575 13.7048 19.9353 13.6384 19.1432 13.8017V11.9812H25.3147L26.0004 15.4286H23.4084Z" fill="#363636" fill-opacity="0.4" stroke="white" stroke-width="0.2"/>
</svg>
