<svg width="24" height="24" viewBox="0 0 24 24" fill="none" xmlns="http://www.w3.org/2000/svg">
<path d="M21.9162 8.8496C21.97 8.74924 21.9964 8.63736 21.993 8.52447C21.9895 8.41158 21.9563 8.30139 21.8964 8.20427L18.4328 1.33587C18.3672 1.24078 18.2785 1.16251 18.1744 1.10783C18.0703 1.05314 17.954 1.02368 17.8354 1.022C17.7961 1.01105 17.7558 1.00368 17.715 1H6.28648C6.24402 1.00402 6.20214 1.01237 6.16152 1.02493C6.04312 1.02658 5.9269 1.05586 5.82286 1.11028C5.71881 1.1647 5.63005 1.24261 5.56419 1.33733L2.1021 8.20427C2.04248 8.30148 2.00939 8.41164 2.00593 8.52448C2.00247 8.63732 2.02873 8.74917 2.08229 8.8496C2.03439 8.9779 2.00665 9.11236 2 9.24853V21.6228C1.9998 21.8035 2.03657 21.9824 2.10822 22.1494C2.17986 22.3164 2.28498 22.4681 2.41757 22.596C2.55015 22.7239 2.70761 22.8254 2.88094 22.8947C3.05428 22.964 3.24011 22.9998 3.42781 23H20.5707C20.7584 23.0002 20.9444 22.9647 21.1179 22.8957C21.2914 22.8266 21.449 22.7253 21.5818 22.5975C21.7146 22.4697 21.8198 22.318 21.8916 22.151C21.9634 21.984 22.0002 21.805 22 21.6243V9.24853C21.9942 9.11212 21.9659 8.97745 21.9162 8.8496ZM17.2701 2.37427L20.0404 7.87427H14.6202L13.6663 2.37427H17.2701ZM12.0008 2.37427L13.4286 7.8728H10.5714L12.0008 2.37427ZM10.5714 9.24853H13.4286V14.7471H10.5714V9.24853ZM6.72381 2.37427H10.3337L9.38133 7.87427H3.9581L6.72381 2.37427ZM20.5646 20.9364C20.5642 21.1186 20.4887 21.2932 20.3547 21.4218C20.2207 21.5505 20.0392 21.6228 19.8499 21.6228H4.14248C3.9532 21.6228 3.77165 21.5505 3.63767 21.4218C3.50369 21.2932 3.42821 21.1186 3.42781 20.9364V9.9364C3.42781 9.75397 3.50311 9.579 3.63713 9.45C3.77116 9.321 3.95294 9.24853 4.14248 9.24853H9.1421V16.1243H14.8564V9.24853H19.856C20.0454 9.24892 20.227 9.32152 20.3609 9.45043C20.4948 9.57935 20.5703 9.75408 20.5707 9.9364L20.5646 20.9364Z" fill="#202020"/>
</svg>
