<svg width="24" height="24" viewBox="0 0 24 24" fill="none" xmlns="http://www.w3.org/2000/svg">
<path d="M23.3384 6.65694L21.1784 8.81701C21.0726 8.92253 20.9293 8.9818 20.78 8.9818C20.6306 8.9818 20.4873 8.92253 20.3815 8.81701L15.1782 3.61365C15.0727 3.50791 15.0134 3.36463 15.0134 3.21524C15.0134 3.06585 15.0727 2.92257 15.1782 2.81683L17.3383 0.656764C17.761 0.236131 18.3331 0 18.9295 0C19.5259 0 20.098 0.236131 20.5208 0.656764L23.3384 3.47445C23.5479 3.68315 23.714 3.93115 23.8274 4.20421C23.9408 4.47727 23.9992 4.77003 23.9992 5.0657C23.9992 5.36136 23.9408 5.65412 23.8274 5.92718C23.714 6.20024 23.5479 6.44824 23.3384 6.65694ZM13.3205 4.67448L1.01057 16.9845L0.0169392 22.6798C-0.0143086 22.8579 -0.00220071 23.0409 0.0522384 23.2133C0.106677 23.3857 0.201846 23.5425 0.329691 23.6703C0.457535 23.7982 0.614294 23.8933 0.786704 23.9478C0.959113 24.0022 1.1421 24.0143 1.32018 23.9831L7.01555 22.9846L19.3255 10.6747C19.431 10.5689 19.4903 10.4256 19.4903 10.2763C19.4903 10.1269 19.431 9.98358 19.3255 9.87784L14.1222 4.67448C14.0156 4.56867 13.8715 4.50928 13.7213 4.50928C13.5712 4.50928 13.4271 4.56867 13.3205 4.67448ZM5.81551 15.9284C5.75405 15.8677 5.70525 15.7954 5.67194 15.7157C5.63864 15.6359 5.62149 15.5504 5.62149 15.464C5.62149 15.3776 5.63864 15.2921 5.67194 15.2123C5.70525 15.1326 5.75405 15.0603 5.81551 14.9996L13.0349 7.78258C13.0959 7.72159 13.1683 7.67321 13.248 7.6402C13.3277 7.6072 13.4131 7.59021 13.4993 7.59021C13.5856 7.59021 13.671 7.6072 13.7507 7.6402C13.8304 7.67321 13.9028 7.72159 13.9638 7.78258C14.0247 7.84356 14.0731 7.91597 14.1061 7.99565C14.1391 8.07534 14.1561 8.16074 14.1561 8.24699C14.1561 8.33324 14.1391 8.41864 14.1061 8.49833C14.0731 8.57801 14.0247 8.65042 13.9638 8.7114L6.74434 15.9284C6.68362 15.9899 6.6113 16.0387 6.53158 16.072C6.45186 16.1053 6.36632 16.1224 6.27993 16.1224C6.19353 16.1224 6.10799 16.1053 6.02827 16.072C5.94855 16.0387 5.87623 15.9899 5.81551 15.9284ZM4.12346 19.8717H6.37473V21.5734L3.35064 22.1038L1.89139 20.6446L2.42181 17.6205H4.12346V19.8717Z" fill="#363636"/>
</svg>
