<svg width="14" height="14" viewBox="0 0 14 14" fill="none" xmlns="http://www.w3.org/2000/svg">
<path d="M2.85406 4.19442C3.20258 4.19394 3.53928 4.07229 3.80267 3.85168C4.06606 3.63107 4.23856 3.32624 4.28866 2.99286H12.3922C12.4206 2.99478 12.4491 2.99102 12.476 2.98183C12.5028 2.97263 12.5274 2.95819 12.5483 2.93941C12.5691 2.92062 12.5857 2.8979 12.5971 2.87264C12.6084 2.84738 12.6143 2.82014 12.6143 2.7926C12.6143 2.76506 12.6084 2.73781 12.5971 2.71256C12.5857 2.6873 12.5691 2.66457 12.5483 2.64579C12.5274 2.62701 12.5028 2.61257 12.476 2.60337C12.4491 2.59418 12.4206 2.59042 12.3922 2.59234H4.28866C4.24885 2.32652 4.13086 2.07735 3.94872 1.87451C3.76657 1.67167 3.52796 1.52371 3.2613 1.44823C2.99463 1.37275 2.71114 1.37293 2.44458 1.44877C2.17801 1.52461 1.93962 1.67289 1.75776 1.87597C1.57591 2.07906 1.45827 2.32838 1.41884 2.59425C1.37942 2.86013 1.41987 3.13135 1.53538 3.37563C1.65089 3.61992 1.8366 3.82697 2.07039 3.97213C2.30418 4.11729 2.5762 4.19445 2.85406 4.19442ZM2.85406 1.79032C3.05904 1.79032 3.25941 1.84908 3.42984 1.95916C3.60028 2.06923 3.73311 2.22569 3.81155 2.40874C3.88999 2.5918 3.91052 2.79322 3.87053 2.98755C3.83054 3.18188 3.73183 3.36038 3.58689 3.50048C3.44195 3.64058 3.25729 3.736 3.05625 3.77465C2.85521 3.8133 2.64683 3.79346 2.45746 3.71764C2.26809 3.64182 2.10623 3.51342 1.99235 3.34867C1.87847 3.18393 1.81769 2.99025 1.81769 2.79211C1.81795 2.5265 1.92723 2.27184 2.12153 2.08403C2.31583 1.89621 2.57928 1.79058 2.85406 1.79032Z" fill="#B2B2B2"/>
<path d="M2.85405 4.58421C2.51372 4.58451 2.17987 4.49424 1.88909 4.32331C1.59831 4.15239 1.36181 3.90739 1.20551 3.61517C1.04921 3.32294 0.979133 2.99477 1.00297 2.66661C1.0268 2.33845 1.14362 2.02296 1.34062 1.75471C1.53763 1.48646 1.80722 1.27581 2.11985 1.14583C2.43249 1.01584 2.7761 0.97155 3.11305 1.0178C3.45 1.06405 3.76728 1.19906 4.03012 1.40803C4.29296 1.617 4.49122 1.89188 4.60319 2.20253H12.3921C12.5498 2.20873 12.6988 2.2736 12.808 2.38358C12.9173 2.49356 12.9783 2.64012 12.9783 2.79259C12.9783 2.94506 12.9173 3.09163 12.808 3.20161C12.6988 3.31159 12.5498 3.37646 12.3921 3.38265H4.60319C4.47522 3.73273 4.23851 4.03604 3.92542 4.25112C3.61233 4.4662 3.23814 4.58253 2.85405 4.58421ZM2.85405 2.18012C2.72883 2.18012 2.60642 2.21601 2.50231 2.28326C2.39819 2.3505 2.31704 2.44608 2.26912 2.55791C2.2212 2.66974 2.20867 2.79279 2.23309 2.9115C2.25752 3.03021 2.31782 3.13926 2.40636 3.22485C2.49491 3.31043 2.60772 3.36872 2.73053 3.39233C2.85334 3.41595 2.98064 3.40383 3.09633 3.35751C3.21202 3.31119 3.3109 3.23275 3.38046 3.13211C3.45003 3.03147 3.48716 2.91315 3.48716 2.79211C3.4869 2.62988 3.42011 2.47437 3.30143 2.35965C3.18276 2.24494 3.02188 2.18038 2.85405 2.18012Z" fill="#B2B2B2"/>
<path d="M11.145 9.80463C10.7963 9.80514 10.4595 9.92693 10.1961 10.1477C9.93269 10.3685 9.76028 10.6736 9.7104 11.0072H1.61093C1.58251 11.0052 1.55399 11.009 1.52713 11.0182C1.50027 11.0274 1.47566 11.0418 1.45483 11.0606C1.43399 11.0794 1.41738 11.1021 1.40602 11.1274C1.39466 11.1526 1.38879 11.1799 1.38879 11.2074C1.38879 11.235 1.39466 11.2622 1.40602 11.2875C1.41738 11.3127 1.43399 11.3354 1.45483 11.3542C1.47566 11.373 1.50027 11.3875 1.52713 11.3966C1.55399 11.4058 1.58251 11.4096 1.61093 11.4077H9.71141C9.75141 11.6735 9.86959 11.9225 10.0519 12.1253C10.2341 12.328 10.4729 12.4758 10.7396 12.5511C11.0063 12.6264 11.2898 12.626 11.5563 12.55C11.8228 12.474 12.0611 12.3256 12.2428 12.1224C12.4245 11.9192 12.542 11.6698 12.5812 11.4039C12.6205 11.138 12.5798 10.8668 12.4642 10.6226C12.3485 10.3784 12.1627 10.1715 11.9288 10.0265C11.6949 9.88144 11.4229 9.80444 11.145 9.80463ZM11.145 12.2087C10.94 12.2087 10.7397 12.15 10.5692 12.0399C10.3988 11.9298 10.266 11.7734 10.1875 11.5903C10.1091 11.4072 10.0885 11.2058 10.1285 11.0115C10.1685 10.8172 10.2672 10.6387 10.4122 10.4986C10.5571 10.3585 10.7418 10.263 10.9428 10.2244C11.1439 10.1857 11.3522 10.2056 11.5416 10.2814C11.731 10.3572 11.8928 10.4856 12.0067 10.6504C12.1206 10.8151 12.1814 11.0088 12.1814 11.2069C12.1811 11.4725 12.0718 11.7272 11.8775 11.915C11.6832 12.1028 11.4198 12.2085 11.145 12.2087Z" fill="#B2B2B2"/>
<path d="M11.1451 9.4148C11.4854 9.41457 11.8191 9.50486 12.1098 9.67578C12.4006 9.84671 12.637 10.0917 12.7933 10.3838C12.9496 10.676 13.0196 11.0041 12.9958 11.3322C12.972 11.6603 12.8553 11.9758 12.6584 12.244C12.4615 12.5123 12.192 12.7229 11.8794 12.853C11.5669 12.983 11.2234 13.0274 10.8864 12.9813C10.5495 12.9352 10.2323 12.8003 9.96936 12.5915C9.70646 12.3827 9.50808 12.108 9.39596 11.7974H1.61103C1.45342 11.7913 1.3044 11.7264 1.19516 11.6164C1.08591 11.5064 1.0249 11.3599 1.0249 11.2074C1.0249 11.0549 1.08591 10.9084 1.19516 10.7984C1.3044 10.6884 1.45342 10.6235 1.61103 10.6173H9.39696C9.5247 10.2672 9.76119 9.96381 10.0741 9.74857C10.387 9.53332 10.761 9.41675 11.1451 9.4148ZM11.1451 11.8189C11.2703 11.8189 11.3927 11.783 11.4968 11.7158C11.601 11.6485 11.6821 11.5529 11.73 11.4411C11.7779 11.3293 11.7905 11.2062 11.766 11.0875C11.7416 10.9688 11.6813 10.8598 11.5928 10.7742C11.5042 10.6886 11.3914 10.6303 11.2686 10.6067C11.1458 10.5831 11.0185 10.5952 10.9028 10.6415C10.7871 10.6878 10.6882 10.7663 10.6187 10.8669C10.5491 10.9675 10.512 11.0859 10.512 11.2069C10.5122 11.3691 10.579 11.5246 10.6977 11.6394C10.8164 11.7541 10.9773 11.8186 11.1451 11.8189Z" fill="#B2B2B2"/>
<path d="M12.3921 6.79536H8.52684C8.48743 6.44137 8.31405 6.11395 8.04002 5.87604C7.766 5.63814 7.41067 5.50653 7.04234 5.50653C6.67401 5.50653 6.31868 5.63814 6.04465 5.87604C5.77062 6.11395 5.59724 6.44137 5.55784 6.79536H1.61093C1.58251 6.79344 1.55399 6.7972 1.52713 6.8064C1.50027 6.81559 1.47566 6.83003 1.45483 6.84881C1.43399 6.8676 1.41738 6.89032 1.40602 6.91558C1.39466 6.94084 1.38879 6.96808 1.38879 6.99562C1.38879 7.02316 1.39466 7.05041 1.40602 7.07566C1.41738 7.10092 1.43399 7.12365 1.45483 7.14243C1.47566 7.16121 1.50027 7.17565 1.52713 7.18485C1.55399 7.19404 1.58251 7.1978 1.61093 7.19588H5.57094C5.62946 7.5322 5.80938 7.83758 6.07875 8.05783C6.34813 8.27807 6.68953 8.39892 7.04234 8.39892C7.39515 8.39892 7.73655 8.27807 8.00592 8.05783C8.2753 7.83758 8.45521 7.5322 8.51373 7.19588H12.3921C12.4205 7.1978 12.449 7.19404 12.4759 7.18485C12.5027 7.17565 12.5274 7.16121 12.5482 7.14243C12.569 7.12365 12.5856 7.10092 12.597 7.07566C12.6084 7.05041 12.6142 7.02316 12.6142 6.99562C12.6142 6.96808 12.6084 6.94084 12.597 6.91558C12.5856 6.89032 12.569 6.8676 12.5482 6.84881C12.5274 6.83003 12.5027 6.81559 12.4759 6.8064C12.449 6.7972 12.4205 6.79344 12.3921 6.79536ZM7.04889 7.9979C6.83534 7.9979 6.62659 7.93669 6.44903 7.822C6.27147 7.70732 6.13307 7.54432 6.05135 7.35361C5.96963 7.1629 5.94825 6.95305 5.98991 6.75059C6.03157 6.54814 6.13441 6.36217 6.28541 6.21621C6.43641 6.07024 6.6288 5.97084 6.83825 5.93057C7.04769 5.8903 7.26479 5.91097 7.46208 5.98996C7.65938 6.06896 7.82801 6.20273 7.94665 6.37436C8.06529 6.546 8.12862 6.74778 8.12862 6.95421C8.12902 7.09205 8.10119 7.22861 8.04675 7.35601C7.9923 7.48341 7.9123 7.59914 7.81137 7.69652C7.71044 7.7939 7.59057 7.87101 7.45867 7.9234C7.32677 7.97579 7.18544 8.00244 7.04284 8.00179L7.04889 7.9979Z" fill="#B2B2B2"/>
<path d="M7.04294 5.12507C7.44649 5.12424 7.83976 5.24802 8.16545 5.47835C8.49115 5.70868 8.73223 6.03353 8.85357 6.40556H12.3922C12.5498 6.41175 12.6988 6.47663 12.808 6.58661C12.9173 6.69659 12.9783 6.84315 12.9783 6.99562C12.9783 7.14809 12.9173 7.29465 12.808 7.40463C12.6988 7.51461 12.5498 7.57949 12.3922 7.58568H8.82232C8.68885 7.93824 8.44654 8.24266 8.12819 8.45773C7.80984 8.6728 7.43083 8.78814 7.04243 8.78814C6.65404 8.78814 6.27502 8.6728 5.95667 8.45773C5.63833 8.24266 5.39602 7.93824 5.26255 7.58568H1.61103C1.45342 7.57949 1.3044 7.51461 1.19516 7.40463C1.08591 7.29465 1.0249 7.14809 1.0249 6.99562C1.0249 6.84315 1.08591 6.69659 1.19516 6.58661C1.3044 6.47663 1.45342 6.41175 1.61103 6.40556H5.23432C5.35556 6.03385 5.59634 5.70923 5.92162 5.47892C6.24691 5.24862 6.63973 5.12466 7.04294 5.12507ZM7.04294 7.61199C7.17673 7.61199 7.30752 7.57364 7.41876 7.50179C7.53001 7.42994 7.61671 7.32781 7.66791 7.20833C7.71911 7.08885 7.73251 6.95737 7.70641 6.83053C7.68031 6.70369 7.61588 6.58718 7.52127 6.49573C7.42667 6.40428 7.30613 6.34201 7.17491 6.31677C7.04369 6.29154 6.90767 6.30449 6.78406 6.35398C6.66045 6.40348 6.5548 6.48729 6.48047 6.59482C6.40614 6.70235 6.36647 6.82877 6.36647 6.9581C6.36647 7.13152 6.43774 7.29784 6.5646 7.42047C6.69146 7.5431 6.86353 7.61199 7.04294 7.61199Z" fill="#B2B2B2"/>
</svg>
