<svg width="25" height="25" viewBox="0 0 25 25" fill="none" xmlns="http://www.w3.org/2000/svg">
<path d="M21.1053 10.8614C21.0886 10.7674 21.0062 10.7 20.9107 10.7H12.45C12.3395 10.7 12.25 10.7895 12.25 10.9V14.1C12.25 14.2105 12.3395 14.3 12.45 14.3H17.3364C16.5943 16.3956 14.6003 17.9 12.25 17.9C9.26785 17.9 6.85 15.4822 6.85 12.5C6.85 9.51785 9.26785 7.1 12.25 7.1C13.5587 7.1 14.7552 7.5694 15.6894 8.34461C15.7709 8.41225 15.8909 8.40905 15.9658 8.33415L18.2316 6.06839C18.3117 5.98833 18.3095 5.85768 18.225 5.78238C16.6353 4.3667 14.5461 3.5 12.25 3.5C7.27975 3.5 3.25 7.52975 3.25 12.5C3.25 17.4703 7.27975 21.5 12.25 21.5C17.2203 21.5 21.25 17.4703 21.25 12.5C21.25 11.953 21.199 11.3872 21.1053 10.8614Z" fill="white"/>
</svg>
