<svg width="16" height="16" viewBox="0 0 16 16" fill="none" xmlns="http://www.w3.org/2000/svg">
<g clip-path="url(#clip0_21_978)">
<path d="M14.152 2.08001C13.3251 1.40998 12.274 1.08006 11.2125 1.15733C10.151 1.23461 9.15883 1.71328 8.43768 2.49601L7.83425 3.11772L7.23082 2.49601C6.50968 1.71328 5.51748 1.23461 4.45599 1.15733C3.39451 1.08006 2.34345 1.40998 1.51654 2.08001C1.06553 2.46961 0.698459 2.94687 0.43765 3.48276C0.176842 4.01866 0.0277419 4.60199 -0.000586073 5.19731C-0.0289141 5.79263 0.064122 6.38748 0.272866 6.94572C0.48161 7.50396 0.801702 8.01391 1.21368 8.44458L7.13711 14.5612C7.22672 14.6547 7.33432 14.7291 7.45344 14.7799C7.57256 14.8308 7.70074 14.857 7.83025 14.857C7.95977 14.857 8.08794 14.8308 8.20706 14.7799C8.32619 14.7291 8.43379 14.6547 8.52339 14.5612L14.4468 8.44458C14.8596 8.01459 15.1805 7.50511 15.3901 6.94714C15.5997 6.38917 15.6936 5.79438 15.666 5.19898C15.6384 4.60358 15.49 4.02002 15.2297 3.48382C14.9694 2.94762 14.6027 2.46999 14.152 2.08001Z" fill="#DEDEDE"/>
</g>
<defs>
<clipPath id="clip0_21_978">
<rect width="16" height="16" fill="white"/>
</clipPath>
</defs>
</svg>
