<svg width="80" height="80" viewBox="0 0 80 80" fill="none" xmlns="http://www.w3.org/2000/svg">
<path d="M70.26 47.63H9.84399V8.68896H70.26V47.63Z" fill="white"/>
<path d="M10.5439 47.1529H69.5559V9.16492H10.5439V47.1529ZM70.7359 48.1069H9.36694V8.21191H70.7359V48.1069Z" fill="#2E2629"/>
<path d="M50.667 50.229H29.382V8.68896H50.667V50.229Z" fill="white"/>
<path d="M29.857 49.7529H50.189V9.16592H29.857V49.7529ZM51.142 50.7059H28.9041V8.21191H51.142V50.7059Z" fill="#2E2629"/>
<path d="M70.26 50.229H58.426V8.68896H70.26V50.229Z" fill="white"/>
<path d="M58.901 49.7529H69.7809V9.16592H58.901V49.7529ZM70.7339 50.7059H57.95V8.21191H70.736V50.7059H70.7339Z" fill="#2E2629"/>
<path d="M21.658 50.229H9.84399V8.68896H21.658V50.229Z" fill="white"/>
<path d="M10.3199 49.7529H21.1809V9.16592H10.3199V49.7529ZM22.1339 50.7059H9.36694V8.21191H22.1339V50.7059Z" fill="#2E2629"/>
<path d="M43.5711 29.193C43.4819 29.1928 43.3947 29.1676 43.3192 29.1203C43.2436 29.073 43.1829 29.0056 43.1437 28.9255C43.1046 28.8455 43.0886 28.756 43.0977 28.6674C43.1068 28.5788 43.1405 28.4944 43.195 28.424L48.385 21.748C48.4227 21.6963 48.4703 21.6528 48.525 21.6199C48.5798 21.587 48.6406 21.5654 48.7039 21.5565C48.7671 21.5475 48.8315 21.5514 48.8933 21.5678C48.955 21.5842 49.0128 21.6129 49.0633 21.6521C49.1138 21.6913 49.1558 21.7402 49.187 21.796C49.2182 21.8517 49.2378 21.9132 49.2448 21.9767C49.2518 22.0402 49.2459 22.1045 49.2276 22.1657C49.2092 22.2269 49.1788 22.2838 49.138 22.333L43.9471 29.009C43.9024 29.0663 43.8452 29.1128 43.7799 29.1447C43.7145 29.1765 43.6428 29.1931 43.57 29.193H43.5711Z" fill="#2E2629"/>
<path d="M41.9269 36.6009C41.8377 36.6011 41.7502 36.5762 41.6744 36.529C41.5986 36.4818 41.5376 36.4142 41.4984 36.334C41.4592 36.2538 41.4434 36.1642 41.4527 36.0754C41.4619 35.9867 41.496 35.9023 41.5509 35.8319L46.7409 29.1559C46.82 29.0605 46.9331 28.9995 47.0563 28.986C47.1795 28.9725 47.3031 29.0074 47.401 29.0835C47.4988 29.1595 47.5633 29.2707 47.5806 29.3934C47.598 29.5161 47.5669 29.6407 47.4939 29.7409L42.3029 36.4169C42.2583 36.4744 42.2011 36.5208 42.1358 36.5527C42.0704 36.5846 41.9986 36.6011 41.9259 36.6009H41.9269Z" fill="#2E2629"/>
<path d="M61.616 33.3771C61.5269 33.3768 61.4396 33.3517 61.3641 33.3044C61.2886 33.2571 61.2278 33.1896 61.1886 33.1096C61.1495 33.0295 61.1335 32.9401 61.1426 32.8515C61.1517 32.7628 61.1854 32.6785 61.24 32.608L66.43 25.932C66.509 25.8366 66.6221 25.7757 66.7453 25.7621C66.8685 25.7486 66.9921 25.7836 67.09 25.8596C67.1879 25.9356 67.2523 26.0468 67.2697 26.1695C67.287 26.2922 67.2559 26.4169 67.183 26.5171L61.992 33.1931C61.9474 33.2505 61.8903 33.297 61.8249 33.3289C61.7595 33.3608 61.6877 33.3773 61.615 33.3771H61.616Z" fill="#2E2629"/>
<path d="M12.8189 52.484C12.7298 52.4838 12.6426 52.4586 12.5671 52.4113C12.4915 52.364 12.4307 52.2966 12.3916 52.2165C12.3525 52.1365 12.3365 52.047 12.3456 51.9584C12.3547 51.8698 12.3884 51.7854 12.443 51.715L17.634 45.039C17.6724 44.9896 17.7201 44.9483 17.7745 44.9174C17.8289 44.8864 17.8888 44.8665 17.9509 44.8588C18.013 44.851 18.076 44.8556 18.1363 44.8722C18.1966 44.8888 18.2531 44.9171 18.3025 44.9555C18.3518 44.9939 18.3932 45.0417 18.4241 45.096C18.455 45.1504 18.4749 45.2104 18.4827 45.2724C18.4904 45.3345 18.4859 45.3975 18.4693 45.4578C18.4527 45.5181 18.4244 45.5746 18.386 45.624L13.196 52.3C13.1515 52.3573 13.0944 52.4036 13.0293 52.4355C12.9641 52.4674 12.8925 52.484 12.82 52.484H12.8189Z" fill="#2E2629"/>
<path d="M71.616 60.036H8.61597V56.396H71.616V60.036Z" fill="white"/>
<path d="M9.31003 59.624H70.928V56.937H9.31003V59.624ZM72.094 60.577H8.14404V55.984H72.094V60.577Z" fill="#2E2629"/>
<path d="M14.8269 41.276C14.8269 41.276 16.1069 58.664 16.1069 71.676L8.38892 71.476V43.453C8.38892 43.453 10.7369 39.097 14.8269 41.276Z" fill="#FEB2A8"/>
<path d="M8.86597 71.012L15.6299 71.19C15.6019 59.28 14.5299 43.801 14.3719 41.579C13.7421 41.239 13.0264 41.0911 12.3134 41.1534C11.6003 41.2158 10.9212 41.4858 10.36 41.93C9.76519 42.3843 9.25882 42.9439 8.86597 43.581V71.011V71.012ZM16.584 72.169L7.91296 71.94V43.333L7.97095 43.227C7.99595 43.18 10.5959 38.482 15.0519 40.856L15.2849 40.979L15.304 41.241C15.317 41.415 16.585 58.796 16.585 71.679V72.168L16.584 72.169Z" fill="#2E2629"/>
<path d="M24.3229 11.12C24.3229 11.12 20.2899 38.32 8.38892 40.526V11.12H24.3229Z" fill="#FEB2A8"/>
<path d="M8.866 11.597V39.932C11.245 39.31 13.478 37.56 15.513 34.723C17.5817 31.6684 19.2163 28.3413 20.37 24.837C21.8544 20.5219 22.989 16.0943 23.763 11.597H8.866ZM7.91299 41.097V10.644H24.876L24.796 11.19C24.015 15.9356 22.8352 20.6068 21.269 25.154C20.0856 28.7436 18.4088 32.1512 16.287 35.279C13.944 38.545 11.316 40.469 8.47598 40.995L7.91199 41.095L7.91299 41.097Z" fill="#2E2629"/>
<path d="M65.1789 41.276C65.1789 41.276 63.8989 58.664 63.8989 71.676L71.6169 71.476V43.453C71.6169 43.453 69.2689 39.097 65.1799 41.276H65.1789Z" fill="#FEB2A8"/>
<path d="M65.631 41.5801C65.473 43.8011 64.401 59.2801 64.373 71.1911L71.137 71.0131V43.5801C70.778 42.9801 68.826 40.0621 65.631 41.5801ZM63.4189 72.1701V71.6811C63.4189 58.7971 64.687 41.4171 64.7 41.2431L64.719 40.9811L64.951 40.8581C69.407 38.4841 72.007 43.1821 72.032 43.2291L72.09 43.3351V71.9431L63.4189 72.1721V72.1701Z" fill="#2E2629"/>
<path d="M55.682 11.12C55.682 11.12 59.715 38.32 71.616 40.526V11.12H55.682Z" fill="#FEB2A8"/>
<path d="M56.242 11.597C57.018 16.0987 58.155 20.5307 59.642 24.85C60.7963 28.3515 62.4308 31.6759 64.499 34.728C66.533 37.562 68.765 39.31 71.142 39.928V11.597H56.242ZM72.093 41.097L71.5291 40.997C68.6891 40.47 66.061 38.547 63.718 35.281C61.5962 32.1532 59.9195 28.7456 58.7361 25.156C57.1699 20.6088 55.99 15.9375 55.209 11.192L55.129 10.646H72.092V41.101L72.093 41.097Z" fill="#2E2629"/>
<path d="M73.791 15.7499H6.47595V8.47192H73.791V15.7459V15.7499Z" fill="#FEB2A8"/>
<path d="M7.14899 15.273H73.119V8.952H7.14899V15.273ZM74.268 16.226H6V8H74.268V16.227V16.226Z" fill="#2E2629"/>
<path d="M12.819 69.2939C12.6949 69.294 12.5758 69.2456 12.4869 69.1591C12.398 69.0727 12.3463 68.9549 12.343 68.8309C12.343 68.7379 12.062 59.3619 11.343 48.9229L11.335 48.8069L11.382 48.6999C13.082 44.8189 14.762 31.1929 14.782 31.0559C14.7895 30.9938 14.8092 30.9338 14.84 30.8793C14.8707 30.8248 14.9119 30.7769 14.9612 30.7383C15.0104 30.6997 15.0668 30.6712 15.1271 30.6545C15.1874 30.6377 15.2504 30.6329 15.3125 30.6404C15.3746 30.648 15.4346 30.6677 15.4891 30.6985C15.5436 30.7292 15.5915 30.7704 15.6301 30.8196C15.6687 30.8689 15.6972 30.9253 15.714 30.9856C15.7308 31.0458 15.7355 31.1088 15.728 31.1709C15.659 31.7319 14.041 44.8379 12.306 48.9709C13.016 59.3829 13.293 68.708 13.295 68.8009C13.2968 68.8635 13.2863 68.9257 13.2641 68.9842C13.2419 69.0427 13.2084 69.0962 13.1655 69.1417C13.1226 69.1872 13.0712 69.2238 13.0141 69.2494C12.957 69.275 12.8955 69.2891 12.833 69.2909L12.819 69.2939Z" fill="#2E2629"/>
<path d="M15.2539 41.569H8.38794V46.769H15.2539V41.569Z" fill="white"/>
<path d="M8.86597 46.306H14.779V42.061H8.86597V46.306ZM15.732 47.259H7.91296V41.108H15.732V47.259Z" fill="#2E2629"/>
<path d="M67.126 69.294H67.112C66.9857 69.2903 66.8659 69.2367 66.7791 69.1448C66.6923 69.0529 66.6455 68.9303 66.649 68.804C66.649 68.711 66.928 59.385 67.638 48.974C65.902 44.84 64.284 31.734 64.216 31.174C64.2085 31.1119 64.2132 31.0489 64.23 30.9886C64.2468 30.9283 64.2753 30.8719 64.3139 30.8227C64.3525 30.7734 64.4004 30.7322 64.4549 30.7015C64.5094 30.6708 64.5694 30.651 64.6315 30.6435C64.6936 30.6359 64.7566 30.6407 64.8169 30.6575C64.8772 30.6743 64.9336 30.7028 64.9828 30.7414C65.0321 30.78 65.0733 30.8279 65.104 30.8824C65.1348 30.9369 65.1545 30.9969 65.162 31.059C65.179 31.196 66.862 44.822 68.562 48.703L68.609 48.81L68.601 48.926C67.887 59.365 67.609 68.741 67.601 68.834C67.5976 68.9578 67.5461 69.0754 67.4574 69.1619C67.3687 69.2483 67.2499 69.2968 67.126 69.297V69.294Z" fill="#2E2629"/>
<path d="M64.75 41.569H71.616V46.769H64.75V41.569Z" fill="white"/>
<path d="M65.2269 46.306H71.1399V42.061H65.2269V46.306ZM72.0929 47.259H64.2739V41.108H72.0929V47.259Z" fill="#2E2629"/>
</svg>
