<svg width="24" height="24" viewBox="0 0 24 24" fill="none" xmlns="http://www.w3.org/2000/svg">
<path d="M22.7433 10.353L12.499 1.19072C12.3615 1.06778 12.185 1 12.0022 1C11.8194 1 11.6428 1.06778 11.5053 1.19072L1.25673 10.353C1.18232 10.4195 1.1215 10.5003 1.07773 10.5909C1.03396 10.6814 1.00809 10.7798 1.00162 10.8805C0.995139 10.9812 1.00818 11.0823 1.03998 11.1778C1.07179 11.2734 1.12174 11.3617 1.18698 11.4376C1.25223 11.5134 1.33149 11.5755 1.42024 11.6201C1.50899 11.6648 1.60549 11.6912 1.70423 11.6978C1.80298 11.7044 1.90204 11.6911 1.99575 11.6586C2.08945 11.6262 2.17598 11.5752 2.25038 11.5087L3.04416 10.7988V22.2315C3.04416 22.3324 3.06365 22.4323 3.10152 22.5256C3.13938 22.6188 3.19488 22.7035 3.26485 22.7749C3.33482 22.8463 3.41789 22.9029 3.50931 22.9415C3.60073 22.9801 3.69871 23 3.79766 23H20.2023C20.4022 23 20.5938 22.919 20.7351 22.7749C20.8765 22.6308 20.9558 22.4353 20.9558 22.2315V10.8003L21.7496 11.5102C21.8999 11.6446 22.0963 11.7126 22.2958 11.6992C22.4952 11.6859 22.6812 11.5923 22.813 11.439C22.9448 11.2858 23.0115 11.0854 22.9984 10.882C22.9853 10.6786 22.8935 10.4888 22.7433 10.3544V10.353ZM10.2571 21.4629V15.1314H13.7371V21.4629H10.2571ZM19.4488 9.4583V21.4629H15.2441V14.3628C15.2441 14.159 15.1647 13.9635 15.0234 13.8194C14.8821 13.6753 14.6905 13.5943 14.4906 13.5943H9.50364C9.30379 13.5943 9.11214 13.6753 8.97083 13.8194C8.82952 13.9635 8.75012 14.159 8.75012 14.3628V21.4629H4.54543V9.4583L11.9971 2.79672L19.4488 9.4583C19.4488 9.45683 19.4488 9.4583 19.4488 9.4583Z" fill="#202020"/>
</svg>
