<svg width="80" height="80" viewBox="0 0 80 80" fill="none" xmlns="http://www.w3.org/2000/svg">
<path d="M25.326 47.64H0.625977V42.845H25.326V47.64Z" fill="white"/>
<path d="M1.235 47.023H24.703V43.464H1.235V47.023V47.023ZM25.935 48.258H0V42.228H25.938V48.258H25.935Z" fill="#2E2629"/>
<path d="M23.468 72.17H22.233V47.022H23.468V72.17Z" fill="#2E2629"/>
<path d="M1.235 72.17H0V11.348H1.235V72.17Z" fill="#2E2629"/>
<path d="M2.75095 30.567H0.616943V11.967H2.75095V30.567V30.567Z" fill="white"/>
<path d="M1.235 29.949H2.13501V12.583H1.235V29.949ZM3.36801 31.184H0V11.348H3.36801V31.184Z" fill="#2E2629"/>
<path d="M54.307 47.64H79.007V42.845H54.307V47.64Z" fill="white"/>
<path d="M54.9251 47.023H78.3931V43.464H54.9251V47.023V47.023ZM79.6251 48.258H53.6901V42.228H79.6281V48.258H79.6251Z" fill="#2E2629"/>
<path d="M57.396 72.17H56.161V47.022H57.396V72.17Z" fill="#2E2629"/>
<path d="M79.6291 72.17H78.394V11.348H79.6291V72.17Z" fill="#2E2629"/>
<path d="M76.877 30.567H79.01V11.967H76.876V30.567H76.877Z" fill="white"/>
<path d="M77.497 29.949H78.397V12.583H77.497V29.949ZM79.63 31.184H76.262V11.348H79.63V31.184Z" fill="#2E2629"/>
<path d="M7.87901 71.552H4.82202V30.24H7.87901V71.552Z" fill="white"/>
<path d="M5.43996 70.9349H7.26096V30.8569H5.43996V70.9349ZM8.49596 72.1699H4.20496V29.6219H8.49596V72.1699V72.1699Z" fill="#2E2629"/>
<path d="M74.875 71.552H71.819V30.24H74.875V71.552Z" fill="white"/>
<path d="M72.435 70.9349H74.257V30.8569H72.435V70.9349ZM75.4919 72.1699H71.2V29.6219H75.4919V72.1699V72.1699Z" fill="#2E2629"/>
<path d="M74.875 30.566H4.82202V23.183H74.875V30.566V30.566Z" fill="white"/>
<path d="M5.43996 29.9479H74.257V23.8009H5.43996V29.9479ZM75.493 31.1829H4.20496V22.5649H75.493V31.1829Z" fill="#2E2629"/>
<path d="M11.8879 23.296L40.1879 42.13L67.588 23.296H11.8879Z" fill="#FEB2A8"/>
<path d="M13.9309 23.914L40.1799 41.385L65.5949 23.914H13.9309ZM40.1909 42.876L9.84595 22.676H69.5719L40.1909 42.876Z" fill="#2E2629"/>
<path d="M48.0139 14.3989C48.0139 15.0885 48.2879 15.7498 48.7755 16.2374C49.263 16.725 49.9244 16.9989 50.6139 16.9989C51.3035 16.9989 51.9648 16.725 52.4524 16.2374C52.94 15.7498 53.2139 15.0885 53.2139 14.3989C53.2139 13.7094 52.94 13.0481 52.4524 12.5605C51.9648 12.0729 51.3035 11.799 50.6139 11.799C49.9244 11.799 49.263 12.0729 48.7755 12.5605C48.2879 13.0481 48.0139 13.7094 48.0139 14.3989V14.3989Z" fill="white"/>
<path d="M50.617 12.416C50.0912 12.4165 49.5872 12.6256 49.2154 12.9974C48.8436 13.3691 48.6345 13.8732 48.634 14.399C48.6348 14.9247 48.844 15.4286 49.2157 15.8003C49.5874 16.172 50.0913 16.3812 50.617 16.382C51.1433 16.3814 51.648 16.172 52.02 15.7996C52.392 15.4272 52.601 14.9224 52.601 14.396C52.6005 13.8702 52.3914 13.3661 52.0196 12.9944C51.6478 12.6226 51.1437 12.4135 50.618 12.413L50.617 12.416ZM50.617 17.616C49.7638 17.6144 48.9461 17.2745 48.3433 16.6709C47.7404 16.0672 47.4015 15.2491 47.401 14.396C47.4021 13.5428 47.7414 12.7249 48.3447 12.1217C48.948 11.5184 49.7658 11.179 50.619 11.178C51.4721 11.179 52.29 11.5184 52.8933 12.1217C53.4965 12.7249 53.8359 13.5428 53.837 14.396C53.8359 15.2491 53.4965 16.067 52.8933 16.6703C52.29 17.2735 51.4721 17.6129 50.619 17.614L50.617 17.616Z" fill="#2E2629"/>
<path d="M50.6179 11.2169C50.6179 11.5584 50.6852 11.8965 50.8158 12.2119C50.9465 12.5274 51.138 12.814 51.3795 13.0554C51.6209 13.2969 51.9075 13.4884 52.223 13.619C52.5384 13.7497 52.8765 13.8169 53.2179 13.8169C53.9075 13.8169 54.5688 13.543 55.0564 13.0554C55.544 12.5678 55.8179 11.9065 55.8179 11.2169C55.8179 10.5274 55.544 9.86606 55.0564 9.37847C54.5688 8.89087 53.9075 8.61694 53.2179 8.61694C52.8765 8.61694 52.5384 8.6842 52.223 8.81486C51.9075 8.94552 51.6209 9.13704 51.3795 9.37847C51.138 9.6199 50.9465 9.90652 50.8158 10.222C50.6852 10.5374 50.6179 10.8755 50.6179 11.2169Z" fill="white"/>
<path d="M53.217 9.235C52.6914 9.23553 52.1875 9.44449 51.8158 9.81604C51.444 10.1876 51.2348 10.6914 51.234 11.217C51.2345 11.7428 51.4436 12.2468 51.8154 12.6186C52.1872 12.9904 52.6912 13.1995 53.217 13.2C53.7429 13.1997 54.2471 12.9907 54.6189 12.6189C54.9908 12.2471 55.1997 11.7428 55.2 11.217C55.1995 10.6913 54.9904 10.1874 54.6186 9.81575C54.2468 9.44414 53.7427 9.23527 53.217 9.235V9.235ZM53.217 14.435C52.3639 14.4339 51.546 14.0946 50.9427 13.4913C50.3395 12.888 50.0001 12.0701 49.999 11.217C50.0003 10.364 50.3398 9.54639 50.9431 8.94334C51.5463 8.3403 52.364 8.00106 53.217 8C54.0701 8.00079 54.888 8.33995 55.4912 8.94305C56.0945 9.54616 56.4339 10.3639 56.435 11.217C56.4339 12.0701 56.0946 12.888 55.4913 13.4913C54.888 14.0946 54.0702 14.4339 53.217 14.435V14.435Z" fill="#2E2629"/>
<path d="M51.324 15.336C51.324 15.7772 51.4109 16.214 51.5799 16.6216C51.7489 17.0291 51.9965 17.3994 52.3086 17.7112C52.6208 18.023 52.9913 18.2701 53.3991 18.4386C53.8068 18.6071 54.2438 18.6935 54.685 18.693C55.5753 18.693 56.4292 18.3393 57.0587 17.7098C57.6883 17.0802 58.042 16.2263 58.042 15.336C58.042 14.4457 57.6883 13.5918 57.0587 12.9622C56.4292 12.3327 55.5753 11.979 54.685 11.979C53.7946 11.979 52.9408 12.3327 52.3112 12.9622C51.6817 13.5918 51.328 14.4457 51.328 15.336H51.324Z" fill="white"/>
<path d="M54.6799 12.6C53.9538 12.601 53.2578 12.89 52.7443 13.4034C52.2309 13.9168 51.942 14.6129 51.9409 15.339C51.9417 16.0653 52.2305 16.7616 52.744 17.2752C53.2574 17.7889 53.9537 18.0779 54.6799 18.079C55.4064 18.0782 56.1028 17.7893 56.6165 17.2756C57.1302 16.7619 57.4191 16.0654 57.4199 15.339C57.4189 14.6127 57.1298 13.9165 56.6162 13.403C56.1025 12.8896 55.4062 12.6008 54.6799 12.6V12.6ZM54.6799 19.314C53.6262 19.3127 52.616 18.8934 51.871 18.1482C51.126 17.403 50.707 16.3927 50.7059 15.339C50.7073 14.2854 51.1264 13.2754 51.8714 12.5304C52.6164 11.7854 53.6264 11.3663 54.6799 11.365C55.7337 11.366 56.744 11.785 57.4892 12.5301C58.2344 13.2751 58.6536 14.2853 58.6549 15.339C58.6536 16.3928 58.2344 17.4031 57.4892 18.1483C56.7441 18.8935 55.7338 19.3127 54.6799 19.314Z" fill="#2E2629"/>
<path d="M53.6939 15.385H60.2079C60.2079 15.385 59.3419 22.174 52.8789 22.174C46.4159 22.174 45.6429 15.385 45.6429 15.385H53.6939Z" fill="white"/>
<path d="M46.39 16.003C46.5976 16.8813 46.9346 17.7238 47.3899 18.503C47.9329 19.4699 48.7331 20.2675 49.7019 20.8071C50.6707 21.3467 51.77 21.6073 52.8779 21.56C54.0001 21.604 55.1127 21.338 56.0935 20.7911C57.0743 20.2442 57.8855 19.4377 58.4379 18.46C58.8925 17.6938 59.2337 16.8659 59.4509 16.002L46.39 16.003ZM52.8779 22.792C51.5484 22.837 50.2321 22.5157 49.0729 21.8632C47.9137 21.2106 46.9561 20.252 46.3049 19.092C45.6515 17.9718 45.2187 16.7369 45.03 15.454L44.95 14.772H60.91L60.8209 15.472C60.6131 16.7568 60.1635 17.9906 59.496 19.108C58.8309 20.265 57.8639 21.2196 56.6985 21.8699C55.5331 22.5202 54.2129 22.8416 52.879 22.8L52.8779 22.792Z" fill="#2E2629"/>
</svg>
