<svg width="88" height="80" viewBox="0 0 88 80" fill="none" xmlns="http://www.w3.org/2000/svg">
<path d="M25.326 47.64H0.625977V42.845H25.326V47.64Z" fill="white"/>
<path d="M1.235 47.023H24.703V43.464H1.235V47.023ZM25.935 48.258H0V42.228H25.938V48.258H25.935Z" fill="#2E2629"/>
<path d="M23.468 72.17H22.233V47.022H23.468V72.17Z" fill="#2E2629"/>
<path d="M1.235 72.17H0V11.348H1.235V72.17Z" fill="#2E2629"/>
<path d="M2.75095 30.567H0.616943V11.967H2.75095V30.567Z" fill="white"/>
<path d="M1.235 29.949H2.13501V12.583H1.235V29.949ZM3.36801 31.184H0V11.348H3.36801V31.184Z" fill="#2E2629"/>
<path d="M62.307 47.64H87.007V42.845H62.307V47.64Z" fill="white"/>
<path d="M62.9251 47.023H86.3931V43.464H62.9251V47.023ZM87.6251 48.258H61.6901V42.228H87.6281V48.258H87.6251Z" fill="#2E2629"/>
<path d="M65.396 72.17H64.161V47.022H65.396V72.17Z" fill="#2E2629"/>
<path d="M87.6291 72.17H86.394V11.348H87.6291V72.17Z" fill="#2E2629"/>
<path d="M84.877 30.567H87.01V11.967H84.876V30.567H84.877Z" fill="white"/>
<path d="M85.497 29.949H86.397V12.583H85.497V29.949ZM87.63 31.184H84.262V11.348H87.63V31.184Z" fill="#2E2629"/>
<path d="M11.879 71.552H8.82202V30.24H11.879V71.552Z" fill="white"/>
<path d="M9.43996 70.9349H11.261V30.8569H9.43996V70.9349ZM12.496 72.1699H8.20496V29.6219H12.496V72.1699Z" fill="#2E2629"/>
<path d="M78.875 71.552H75.819V30.24H78.875V71.552Z" fill="white"/>
<path d="M76.435 70.9349H78.257V30.8569H76.435V70.9349ZM79.4919 72.1699H75.2V29.6219H79.4919V72.1699Z" fill="#2E2629"/>
<path d="M78.875 30.566H8.82202V23.183H78.875V30.566Z" fill="white"/>
<path d="M9.43996 29.9479H78.257V23.8009H9.43996V29.9479ZM79.493 31.1829H8.20496V22.5649H79.493V31.1829Z" fill="#2E2629"/>
<path d="M15.8879 23.296L44.1879 42.13L71.588 23.296H15.8879Z" fill="#FEB2A8"/>
<path d="M17.9309 23.914L44.1799 41.385L69.5949 23.914H17.9309ZM44.1909 42.876L13.8459 22.676H73.5719L44.1909 42.876Z" fill="#2E2629"/>
<path d="M52.014 14.3989C52.014 15.0885 52.288 15.7498 52.7756 16.2374C53.2632 16.725 53.9245 16.9989 54.614 16.9989C55.3036 16.9989 55.9649 16.725 56.4525 16.2374C56.9401 15.7498 57.2141 15.0885 57.2141 14.3989C57.2141 13.7094 56.9401 13.0481 56.4525 12.5605C55.9649 12.0729 55.3036 11.799 54.614 11.799C53.9245 11.799 53.2632 12.0729 52.7756 12.5605C52.288 13.0481 52.014 13.7094 52.014 14.3989Z" fill="white"/>
<path d="M54.617 12.416C54.0912 12.4165 53.5872 12.6256 53.2154 12.9974C52.8436 13.3691 52.6345 13.8732 52.634 14.399C52.6348 14.9247 52.844 15.4286 53.2157 15.8003C53.5874 16.172 54.0913 16.3812 54.617 16.382C55.1433 16.3814 55.648 16.172 56.02 15.7996C56.392 15.4272 56.601 14.9224 56.601 14.396C56.6005 13.8702 56.3914 13.3661 56.0196 12.9944C55.6478 12.6226 55.1437 12.4135 54.618 12.413L54.617 12.416ZM54.617 17.616C53.7638 17.6144 52.9461 17.2745 52.3433 16.6709C51.7404 16.0672 51.4015 15.2491 51.401 14.396C51.4021 13.5428 51.7414 12.7249 52.3447 12.1217C52.948 11.5184 53.7658 11.179 54.619 11.178C55.4721 11.179 56.29 11.5184 56.8933 12.1217C57.4965 12.7249 57.8359 13.5428 57.837 14.396C57.8359 15.2491 57.4965 16.067 56.8933 16.6703C56.29 17.2735 55.4721 17.6129 54.619 17.614L54.617 17.616Z" fill="#2E2629"/>
<path d="M54.618 11.2169C54.618 11.5584 54.6853 11.8965 54.8159 12.2119C54.9466 12.5274 55.1381 12.814 55.3796 13.0554C55.621 13.2969 55.9076 13.4884 56.2231 13.619C56.5385 13.7497 56.8766 13.8169 57.218 13.8169C57.9076 13.8169 58.5689 13.543 59.0565 13.0554C59.5441 12.5678 59.8181 11.9065 59.8181 11.2169C59.8181 10.5274 59.5441 9.86606 59.0565 9.37847C58.5689 8.89087 57.9076 8.61694 57.218 8.61694C56.8766 8.61694 56.5385 8.6842 56.2231 8.81486C55.9076 8.94552 55.621 9.13704 55.3796 9.37847C55.1381 9.6199 54.9466 9.90652 54.8159 10.222C54.6853 10.5374 54.618 10.8755 54.618 11.2169Z" fill="white"/>
<path d="M57.217 9.235C56.6914 9.23553 56.1875 9.44449 55.8158 9.81604C55.444 10.1876 55.2348 10.6914 55.234 11.217C55.2345 11.7428 55.4436 12.2468 55.8154 12.6186C56.1872 12.9904 56.6912 13.1995 57.217 13.2C57.7429 13.1997 58.2471 12.9907 58.6189 12.6189C58.9908 12.2471 59.1997 11.7428 59.2 11.217C59.1995 10.6913 58.9904 10.1874 58.6186 9.81575C58.2468 9.44414 57.7427 9.23527 57.217 9.235ZM57.217 14.435C56.3639 14.4339 55.546 14.0946 54.9427 13.4913C54.3395 12.888 54.0001 12.0701 53.999 11.217C54.0003 10.364 54.3398 9.54639 54.9431 8.94334C55.5463 8.3403 56.364 8.00106 57.217 8C58.0701 8.00079 58.8879 8.33995 59.4912 8.94305C60.0945 9.54616 60.4339 10.3639 60.435 11.217C60.4339 12.0701 60.0946 12.888 59.4913 13.4913C58.888 14.0946 58.0702 14.4339 57.217 14.435Z" fill="#2E2629"/>
<path d="M55.324 15.336C55.324 15.7772 55.4109 16.214 55.5799 16.6216C55.7489 17.0291 55.9965 17.3994 56.3086 17.7112C56.6208 18.023 56.9913 18.2701 57.3991 18.4386C57.8068 18.6071 58.2438 18.6935 58.685 18.693C59.5753 18.693 60.4292 18.3393 61.0587 17.7098C61.6883 17.0802 62.042 16.2263 62.042 15.336C62.042 14.4457 61.6883 13.5918 61.0587 12.9622C60.4292 12.3327 59.5753 11.979 58.685 11.979C57.7946 11.979 56.9408 12.3327 56.3112 12.9622C55.6817 13.5918 55.328 14.4457 55.328 15.336H55.324Z" fill="white"/>
<path d="M58.6801 12.6C57.954 12.601 57.2579 12.89 56.7444 13.4034C56.231 13.9168 55.9421 14.6129 55.9411 15.339C55.9419 16.0653 56.2306 16.7616 56.7441 17.2752C57.2576 17.7889 57.9538 18.0779 58.6801 18.079C59.4065 18.0782 60.103 17.7893 60.6166 17.2756C61.1303 16.7619 61.4193 16.0654 61.42 15.339C61.419 14.6127 61.13 13.9165 60.6163 13.403C60.1027 12.8896 59.4063 12.6008 58.6801 12.6ZM58.6801 19.314C57.6263 19.3127 56.6161 18.8934 55.8711 18.1482C55.1261 17.403 54.7071 16.3927 54.7061 15.339C54.7074 14.2854 55.1265 13.2754 55.8715 12.5304C56.6165 11.7854 57.6265 11.3663 58.6801 11.365C59.7338 11.366 60.7441 11.785 61.4893 12.5301C62.2345 13.2751 62.6537 14.2853 62.6551 15.339C62.6537 16.3928 62.2345 17.4031 61.4893 18.1483C60.7442 18.8935 59.7339 19.3127 58.6801 19.314Z" fill="#2E2629"/>
<path d="M57.6941 15.385H64.2081C64.2081 15.385 63.3421 22.174 56.8791 22.174C50.4161 22.174 49.6431 15.385 49.6431 15.385H57.6941Z" fill="white"/>
<path d="M50.39 16.003C50.5976 16.8813 50.9346 17.7238 51.3899 18.503C51.9329 19.4699 52.7331 20.2675 53.7019 20.8071C54.6707 21.3467 55.77 21.6073 56.8779 21.56C58.0001 21.604 59.1127 21.338 60.0935 20.7911C61.0743 20.2442 61.8855 19.4377 62.4379 18.46C62.8925 17.6938 63.2337 16.8659 63.4509 16.002L50.39 16.003ZM56.8779 22.792C55.5484 22.837 54.2321 22.5157 53.0729 21.8632C51.9137 21.2106 50.9561 20.252 50.3049 19.092C49.6515 17.9718 49.2187 16.7369 49.03 15.454L48.95 14.772H64.91L64.8209 15.472C64.6131 16.7568 64.1635 17.9906 63.496 19.108C62.8309 20.265 61.8639 21.2196 60.6985 21.8699C59.5331 22.5202 58.2129 22.8416 56.879 22.8L56.8779 22.792Z" fill="#2E2629"/>
</svg>
