<svg width="24" height="24" viewBox="0 0 24 24" fill="none" xmlns="http://www.w3.org/2000/svg">
<g clip-path="url(#clip0_7_712)">
<path d="M0.256979 13.2493L6.98553 19.9579C7.06642 20.0386 7.16243 20.1026 7.26811 20.1463C7.37378 20.19 7.48704 20.2125 7.60142 20.2125C7.7158 20.2125 7.82907 20.19 7.93474 20.1463C8.04041 20.1026 8.13643 20.0386 8.21731 19.9579C8.29819 19.8772 8.36235 19.7814 8.40612 19.676C8.44989 19.5705 8.47242 19.4575 8.47242 19.3434C8.47242 19.2293 8.44989 19.1163 8.40612 19.0108C8.36235 18.9054 8.29819 18.8096 8.21731 18.7289L2.97752 13.5007L23.1252 13.5007C23.243 13.5051 23.3604 13.4858 23.4705 13.444C23.5807 13.4021 23.6812 13.3385 23.7661 13.2569C23.851 13.1754 23.9185 13.0775 23.9646 12.9693C24.0108 12.8611 24.0345 12.7448 24.0345 12.6272C24.0345 12.5096 24.0108 12.3932 23.9646 12.285C23.9185 12.1768 23.851 12.079 23.7661 11.9975C23.6812 11.9159 23.5807 11.8523 23.4705 11.8104C23.3604 11.7685 23.243 11.7492 23.1252 11.7537L2.97752 11.7537L8.21731 6.54066C8.37396 6.3755 8.45972 6.1558 8.45629 5.92844C8.45286 5.70108 8.36051 5.48405 8.19896 5.32368C8.0374 5.1633 7.81942 5.07227 7.59154 5.07002C7.36366 5.06776 7.14392 5.15446 6.9792 5.3116L0.251913 12.024C0.0913124 12.188 0.00181961 12.4084 0.00276756 12.6377C0.00371552 12.867 0.0950279 13.0866 0.256979 13.2493Z" fill="#202020"/>
</g>
<defs>
<clipPath id="clip0_7_712">
<rect width="24" height="24" fill="white"/>
</clipPath>
</defs>
</svg>
