<svg width="14" height="14" viewBox="0 0 14 14" fill="none" xmlns="http://www.w3.org/2000/svg">
<path d="M13.0769 12.905H3.87333C3.69115 12.905 3.51642 12.8275 3.3876 12.6894C3.25877 12.5514 3.1864 12.3642 3.1864 12.169C3.1864 11.9738 3.25877 11.7866 3.3876 11.6486C3.51642 11.5105 3.69115 11.433 3.87333 11.433H13.0769C13.2591 11.433 13.4338 11.5105 13.5627 11.6486C13.6915 11.7866 13.7639 11.9738 13.7639 12.169C13.7639 12.3642 13.6915 12.5514 13.5627 12.6894C13.4338 12.8275 13.2591 12.905 13.0769 12.905Z" fill="#B2B2B2"/>
<path d="M13.0769 8.286H3.87333C3.69115 8.286 3.51642 8.20846 3.3876 8.07043C3.25877 7.9324 3.1864 7.7452 3.1864 7.55C3.1864 7.3548 3.25877 7.16759 3.3876 7.02957C3.51642 6.89154 3.69115 6.814 3.87333 6.814H13.0769C13.2591 6.814 13.4338 6.89154 13.5627 7.02957C13.6915 7.16759 13.7639 7.3548 13.7639 7.55C13.7639 7.7452 13.6915 7.9324 13.5627 8.07043C13.4338 8.20846 13.2591 8.286 13.0769 8.286Z" fill="#B2B2B2"/>
<path d="M13.0769 3.664H3.87333C3.69115 3.664 3.51642 3.58646 3.3876 3.44843C3.25877 3.31041 3.1864 3.1232 3.1864 2.928C3.1864 2.7328 3.25877 2.5456 3.3876 2.40757C3.51642 2.26954 3.69115 2.192 3.87333 2.192H13.0769C13.2591 2.192 13.4338 2.26954 13.5627 2.40757C13.6915 2.5456 13.7639 2.7328 13.7639 2.928C13.7639 3.1232 13.6915 3.31041 13.5627 3.44843C13.4338 3.58646 13.2591 3.664 13.0769 3.664Z" fill="#B2B2B2"/>
<path d="M1 3.976C1.55228 3.976 2 3.53366 2 2.988C2 2.44234 1.55228 2 1 2C0.447715 2 0 2.44234 0 2.988C0 3.53366 0.447715 3.976 1 3.976Z" fill="#B2B2B2"/>
<path d="M1 8.538C1.55228 8.538 2 8.09566 2 7.55C2 7.00434 1.55228 6.562 1 6.562C0.447715 6.562 0 7.00434 0 7.55C0 8.09566 0.447715 8.538 1 8.538Z" fill="#B2B2B2"/>
<path d="M1 13.1C1.55228 13.1 2 12.6577 2 12.112C2 11.5663 1.55228 11.124 1 11.124C0.447715 11.124 0 11.5663 0 12.112C0 12.6577 0.447715 13.1 1 13.1Z" fill="#B2B2B2"/>
</svg>
