<svg width="80" height="80" viewBox="0 0 80 80" fill="none" xmlns="http://www.w3.org/2000/svg">
<path d="M64.563 66.534H14.619V42.934H64.563V66.534Z" fill="#FEB2A8"/>
<path d="M14.971 65.922H64.207V43.545H14.971V65.922ZM65.171 67.145H14.007V42.322H65.174V67.144L65.171 67.145Z" fill="#2E2629"/>
<path d="M19.93 71.554H16.407V66.532H19.93V71.554Z" fill="white"/>
<path d="M17.0851 70.943H19.3851V67.143H17.0851V70.943ZM20.6081 72.166H15.8621V65.921H20.6081V72.166Z" fill="#2E2629"/>
<path d="M62.999 71.554H59.476V66.532H62.999V71.554Z" fill="white"/>
<path d="M60.02 70.943H62.32V67.143H60.02V70.943ZM63.543 72.166H58.797V65.921H63.543V72.166Z" fill="#2E2629"/>
<path d="M40.216 66.534H38.993V42.934H40.216V66.534Z" fill="#2E2629"/>
<path d="M41.649 61.405C41.4871 61.405 41.3318 61.3408 41.2173 61.2264C41.1027 61.112 41.0382 60.9569 41.038 60.795V53.617C41.038 53.4548 41.1024 53.2993 41.2171 53.1846C41.3317 53.0699 41.4873 53.0055 41.6495 53.0055C41.8116 53.0055 41.9672 53.0699 42.0819 53.1846C42.1965 53.2993 42.261 53.4548 42.261 53.617V60.795C42.2604 60.957 42.1957 61.1121 42.081 61.2265C41.9663 61.3408 41.8109 61.405 41.649 61.405Z" fill="#2E2629"/>
<path d="M37.513 61.405C37.3511 61.405 37.1958 61.3408 37.0813 61.2264C36.9667 61.112 36.9022 60.9569 36.902 60.795V53.617C36.902 53.4548 36.9664 53.2993 37.0811 53.1846C37.1958 53.0699 37.3513 53.0055 37.5135 53.0055C37.6757 53.0055 37.8312 53.0699 37.9459 53.1846C38.0606 53.2993 38.125 53.4548 38.125 53.617V60.795C38.1244 60.957 38.0597 61.1121 37.945 61.2265C37.8303 61.3408 37.6749 61.405 37.513 61.405Z" fill="#2E2629"/>
<path d="M26.181 55.311H4.612V8.61096H26.181V55.311Z" fill="white"/>
<path d="M5.223 54.7H25.57V9.223H5.223V54.7ZM26.793 55.923H4V8H26.793V55.923Z" fill="#2E2629"/>
<path d="M74.731 55.311H53.162V8.61096H74.731V55.311Z" fill="white"/>
<path d="M53.773 54.7H74.12V9.223H53.773V54.7ZM75.343 55.923H52.55V8H75.343V55.923Z" fill="#2E2629"/>
<path d="M60.042 55.311H19.3V8.61096H60.042V55.311Z" fill="white"/>
<path d="M19.912 54.7H59.431V9.223H19.912V54.7ZM60.654 55.923H18.689V8H60.654V55.923Z" fill="#2E2629"/>
<path d="M11.393 27.4559C11.2786 27.4561 11.1664 27.424 11.0693 27.3635C10.9722 27.303 10.894 27.2165 10.8437 27.1137C10.7933 27.011 10.7729 26.8962 10.7846 26.7823C10.7963 26.6685 10.8398 26.5603 10.91 26.4699L18.691 16.4629C18.7403 16.3996 18.8016 16.3466 18.8714 16.3069C18.9412 16.2672 19.0182 16.2417 19.0978 16.2318C19.1775 16.2218 19.2583 16.2277 19.3358 16.249C19.4132 16.2703 19.4856 16.3066 19.549 16.3559C19.6124 16.4053 19.6654 16.4666 19.705 16.5364C19.7447 16.6062 19.7702 16.6831 19.7802 16.7628C19.7901 16.8425 19.7843 16.9233 19.763 17.0007C19.7416 17.0781 19.7053 17.1506 19.656 17.2139L11.877 27.2199C11.8196 27.2935 11.7462 27.353 11.6623 27.3939C11.5784 27.4348 11.4863 27.456 11.393 27.4559Z" fill="#2E2629"/>
<path d="M9.39201 33.152C9.27759 33.1519 9.16549 33.1196 9.0685 33.0589C8.9715 32.9982 8.89349 32.9115 8.84337 32.8087C8.79324 32.7058 8.773 32.5909 8.78496 32.4771C8.79692 32.3633 8.8406 32.2552 8.91101 32.165L16.689 22.158C16.7902 22.0346 16.9355 21.9556 17.0941 21.9379C17.2527 21.9201 17.4119 21.965 17.5378 22.0629C17.6638 22.1608 17.7465 22.3041 17.7684 22.4621C17.7903 22.6202 17.7496 22.7805 17.655 22.909L9.87501 32.915C9.81793 32.989 9.74458 33.0488 9.66065 33.0899C9.57672 33.131 9.48446 33.1523 9.39101 33.152H9.39201Z" fill="#2E2629"/>
<path d="M45.543 27.4559C45.4287 27.4557 45.3168 27.4234 45.22 27.3628C45.1232 27.3021 45.0453 27.2155 44.9952 27.1128C44.9451 27.0102 44.9248 26.8955 44.9366 26.7818C44.9484 26.6682 44.9918 26.5601 45.062 26.4699L52.841 16.4629C52.8903 16.3996 52.9516 16.3466 53.0214 16.3069C53.0912 16.2672 53.1681 16.2417 53.2478 16.2318C53.3275 16.2218 53.4083 16.2277 53.4857 16.249C53.5631 16.2703 53.6356 16.3066 53.699 16.3559C53.7623 16.4053 53.8154 16.4666 53.855 16.5364C53.8947 16.6062 53.9202 16.6831 53.9302 16.7628C53.9401 16.8425 53.9342 16.9233 53.9129 17.0007C53.8916 17.0781 53.8553 17.1506 53.806 17.2139L46.026 27.2199C45.9687 27.2937 45.8953 27.3533 45.8114 27.3942C45.7275 27.4352 45.6353 27.4563 45.542 27.4559H45.543Z" fill="#2E2629"/>
<path d="M43.903 33.152C43.7885 33.1523 43.6761 33.1203 43.5788 33.0598C43.4815 32.9992 43.4032 32.9125 43.3528 32.8096C43.3025 32.7067 43.2821 32.5916 43.2939 32.4777C43.3058 32.3637 43.3495 32.2553 43.42 32.165L51.201 22.158C51.3006 22.0301 51.447 21.9469 51.6079 21.9268C51.7688 21.9068 51.9311 21.9514 52.059 22.051C52.187 22.1506 52.2702 22.297 52.2902 22.4579C52.3103 22.6188 52.2656 22.7811 52.166 22.909L44.387 32.915C44.3299 32.9889 44.2565 33.0487 44.1726 33.0898C44.0887 33.1308 43.9965 33.1521 43.903 33.152Z" fill="#2E2629"/>
<path d="M37.891 48.416H17.481V36.262H37.891V48.416Z" fill="white"/>
<path d="M18.155 47.793H37.342V36.862H18.155V47.793ZM38.565 49.016H16.932V35.639H38.565V49.016Z" fill="#2E2629"/>
<path d="M37.891 41.248H17.481V40.025H37.891V41.248Z" fill="#2E2629"/>
<path d="M28.604 42.921H25.269V39.141H28.604V42.921Z" fill="white"/>
<path d="M25.92 42.306H28.032V39.749H25.92V42.306ZM29.255 43.526H24.697V38.526H29.255V43.526Z" fill="#2E2629"/>
<path d="M58.69 48.683H54.416V33.618H58.69V48.683Z" fill="white"/>
<path d="M54.975 48.066H58.026V34.224H54.975V48.066ZM59.252 49.289H53.752V33.001H59.252V49.289Z" fill="#2E2629"/>
<path d="M55.688 48.201H49.795V38.584H55.688V48.201Z" fill="white"/>
<path d="M50.364 47.575H55.033V39.181H50.364V47.575ZM56.256 48.798H49.141V37.958H56.256V48.798Z" fill="#2E2629"/>
</svg>
