<svg width="254" height="113" viewBox="0 0 254 113" fill="none" xmlns="http://www.w3.org/2000/svg">
<path d="M110.827 85.5977C106.583 87.8398 101.298 88.9609 94.972 88.9609C86.804 88.9609 80.2643 86.3317 75.3528 81.0732C70.4414 75.8148 67.9857 68.9147 67.9857 60.373C67.9857 51.1908 70.7484 43.7702 76.2737 38.1113C81.7991 32.4525 88.806 29.623 97.2943 29.623C102.74 29.623 107.251 30.4105 110.827 31.9854V39.1523C106.717 36.8568 102.179 35.709 97.2142 35.709C90.6211 35.709 85.2692 37.9111 81.1585 42.3154C77.0745 46.7197 75.0325 52.6055 75.0325 59.9727C75.0325 66.9661 76.9411 72.5449 80.7581 76.709C84.6019 80.8464 89.6334 82.915 95.8528 82.915C101.618 82.915 106.61 81.6338 110.827 79.0713V85.5977ZM150.987 88H144.42V81.5938H144.26C141.404 86.5052 137.2 88.9609 131.648 88.9609C127.564 88.9609 124.361 87.8799 122.038 85.7178C119.743 83.5557 118.595 80.6862 118.595 77.1094C118.595 69.4486 123.106 64.9909 132.128 63.7363L144.42 62.0146C144.42 55.0479 141.604 51.5645 135.972 51.5645C131.034 51.5645 126.576 53.2461 122.599 56.6094V49.8828C126.63 47.3203 131.274 46.0391 136.533 46.0391C146.169 46.0391 150.987 51.1374 150.987 61.334V88ZM144.42 67.2598L134.531 68.6211C131.488 69.0482 129.192 69.8089 127.644 70.9033C126.096 71.971 125.322 73.8796 125.322 76.6289C125.322 78.6309 126.029 80.2725 127.444 81.5537C128.885 82.8083 130.794 83.4355 133.169 83.4355C136.426 83.4355 139.108 82.3011 141.217 80.0322C143.353 77.7367 144.42 74.8405 144.42 71.3438V67.2598ZM184.74 53.6465C183.592 52.7656 181.937 52.3252 179.775 52.3252C176.972 52.3252 174.623 53.6465 172.728 56.2891C170.859 58.9316 169.925 62.5352 169.925 67.0996V88H163.359V47H169.925V55.4482H170.085C171.02 52.5654 172.448 50.3232 174.369 48.7217C176.291 47.0934 178.44 46.2793 180.816 46.2793C182.524 46.2793 183.832 46.4661 184.74 46.8398V53.6465ZM213.247 53.6465C212.1 52.7656 210.445 52.3252 208.283 52.3252C205.48 52.3252 203.131 53.6465 201.236 56.2891C199.367 58.9316 198.433 62.5352 198.433 67.0996V88H191.867V47H198.433V55.4482H198.593C199.527 52.5654 200.955 50.3232 202.877 48.7217C204.799 47.0934 206.948 46.2793 209.324 46.2793C211.032 46.2793 212.34 46.4661 213.247 46.8398V53.6465ZM253.006 47L234.148 94.5664C230.784 103.055 226.06 107.299 219.974 107.299C218.266 107.299 216.838 107.125 215.69 106.778V100.893C217.104 101.373 218.399 101.613 219.574 101.613C222.883 101.613 225.366 99.638 227.021 95.6875L230.304 87.9199L214.288 47H221.576L232.666 78.5508C232.8 78.9512 233.08 79.9922 233.507 81.6738H233.747C233.881 81.0332 234.148 80.0189 234.548 78.6309L246.2 47H253.006Z" fill="#FEB2A8"/>
<path d="M11.085 71.4827C8.98054 71.481 6.96286 70.8243 5.47469 69.6567C3.98651 68.489 3.14939 66.9058 3.147 65.2544V52.3637C3.1478 51.9111 3.37731 51.4771 3.78522 51.157C4.19312 50.8369 4.74615 50.6568 5.32301 50.6562H13.565C14.142 50.6566 14.6953 50.8366 15.1034 51.1567C15.5116 51.4768 15.7412 51.9109 15.742 52.3637V63.0752C15.742 63.2373 15.7827 63.3977 15.8618 63.5475C15.9408 63.6972 16.0567 63.8332 16.2028 63.9477C16.3489 64.0623 16.5223 64.1531 16.7131 64.2151C16.904 64.277 17.1085 64.3089 17.315 64.3088H53.697V38.1069C52.9126 37.238 51.8744 36.5292 50.6692 36.0399C49.464 35.5506 48.1269 35.295 46.77 35.2945H27.411C26.9937 35.2945 26.5935 35.4245 26.2984 35.6561C26.0033 35.8877 25.8375 36.2017 25.8375 36.5292C25.8375 36.8567 26.0033 37.1708 26.2984 37.4023C26.5935 37.6339 26.9937 37.764 27.411 37.764H46.768C48.1877 37.765 49.5489 38.2081 50.5527 38.996C51.5566 39.7838 52.1209 40.8521 52.122 41.9662V54.3122C52.088 54.2863 52.055 54.2643 52.022 54.24C50.1331 52.8657 47.6558 52.0979 45.08 52.0883H18.88C18.8007 51.272 18.4217 50.4911 17.7888 49.8402C17.156 49.1893 16.2964 48.6962 15.314 48.4205C14.7537 48.2645 14.1635 48.1849 13.569 48.1851H10.601V41.963C10.6023 40.8489 11.1669 39.7806 12.1709 38.9928C13.1749 38.2049 14.5362 37.7619 15.956 37.7608H21.117C21.5343 37.7608 21.9346 37.6307 22.2296 37.3992C22.5247 37.1676 22.6905 36.8536 22.6905 36.5261C22.6905 36.1986 22.5247 35.8845 22.2296 35.653C21.9346 35.4214 21.5343 35.2913 21.117 35.2913H15.956C13.7026 35.2938 11.5425 35.9973 9.94911 37.2477C8.35574 38.4981 7.45918 40.1932 7.45601 41.9615V48.1835H5.32201C3.91101 48.1848 2.55826 48.6252 1.56053 49.4081C0.562807 50.191 0.00158807 51.2526 0 52.3598V65.2497C0.00449688 67.5553 1.17376 69.7655 3.25146 71.3958C5.32917 73.0261 8.14581 73.9434 11.084 73.9468H11.874C11.874 73.9468 10.152 77.5839 10.15 77.5863C9.90547 78.1261 9.82843 78.7039 9.92529 79.2717C10.0222 79.8396 10.2901 80.3811 10.707 80.8514C11.1238 81.3218 11.6775 81.7074 12.3222 81.9762C12.9669 82.2451 13.684 82.3895 14.414 82.3974H16.944C17.6469 82.396 18.3399 82.2674 18.9691 82.0216C19.5984 81.7758 20.1469 81.4195 20.572 80.9802L27.352 73.946H53.694V71.4772L11.085 71.4827ZM18.885 54.5578H45.077C46.9445 54.5597 48.7349 55.1428 50.0552 56.1792C51.3756 57.2156 52.1182 58.6207 52.12 60.0862V61.8408H18.888L18.885 54.5578ZM18.06 79.4986C17.9288 79.6337 17.7597 79.7432 17.5658 79.8186C17.3719 79.894 17.1584 79.9333 16.942 79.9334H14.41C14.1848 79.9311 13.9636 79.8867 13.7647 79.8038C13.5658 79.7209 13.395 79.6019 13.2666 79.4567C13.1382 79.3116 13.0558 79.1444 13.0263 78.9692C12.9968 78.794 13.021 78.6158 13.097 78.4495L15.228 73.9514H23.405L18.06 79.4986Z" fill="#FE9C8F"/>
<path d="M53.696 16.2249V101.472" stroke="#F69B8F" stroke-width="2" stroke-miterlimit="10"/>
</svg>
