<svg width="24" height="24" viewBox="0 0 24 24" fill="none" xmlns="http://www.w3.org/2000/svg">
<path d="M23.1897 12.0426C23.1673 13.8729 22.4245 15.6207 21.1223 16.9071C19.82 18.1935 18.0633 18.9149 16.2328 18.9149C14.4023 18.9149 12.6456 18.1935 11.3434 16.9071C10.0411 15.6207 9.29831 13.8729 9.27591 12.0426C9.26464 11.1218 9.43626 10.208 9.78082 9.35404C10.1254 8.50011 10.636 7.72307 11.2832 7.06797C11.9303 6.41288 12.701 5.89276 13.5507 5.53777C14.4003 5.18279 15.312 5 16.2328 5C17.1536 5 18.0653 5.18279 18.915 5.53777C19.7646 5.89276 20.5353 6.41288 21.1825 7.06797C21.8296 7.72307 22.3402 8.50011 22.6848 9.35404C23.0294 10.208 23.201 11.1218 23.1897 12.0426Z" fill="#FFB600"/>
<path d="M16.2334 5.08514C18.0771 5.08982 19.8441 5.82433 21.1478 7.12809C22.4516 8.43185 23.1861 10.1988 23.1908 12.0426C23.1684 13.8729 22.4256 15.6207 21.1233 16.9071C19.8211 18.1935 18.0644 18.9149 16.2339 18.9149C14.4034 18.9149 12.6467 18.1935 11.3444 16.9071C10.0422 15.6207 9.29938 13.8729 9.27698 12.0426" fill="#F7981D"/>
<path d="M16.2333 5.08514C18.0771 5.08982 19.844 5.82433 21.1478 7.12809C22.4515 8.43185 23.186 10.1988 23.1907 12.0426C23.1915 12.9565 23.0121 13.8615 22.6628 14.706C22.3134 15.5505 21.801 16.3178 21.1548 16.964C20.5085 17.6103 19.7412 18.1227 18.8968 18.4721C18.0523 18.8214 17.1472 19.0008 16.2333 19" fill="#FF8500"/>
<path d="M6.88342 5.08514C5.05173 5.11508 3.30575 5.86623 2.02447 7.17556C0.743198 8.48489 0.0300308 10.2467 0.0397713 12.0786C0.0495119 13.9105 0.781375 15.6647 2.0765 16.9603C3.37163 18.256 5.12549 18.9885 6.95741 18.999C8.68405 18.9915 10.3477 18.3496 11.6318 17.1953C11.8834 16.968 12.1172 16.7217 12.331 16.4586H10.8951C10.7114 16.2345 10.5392 16.0011 10.3793 15.7594H12.8457C13.0025 15.5264 13.1382 15.2798 13.2511 15.0227H9.97503C9.85469 14.7865 9.75599 14.54 9.68015 14.286H13.5085C13.7438 13.5729 13.8679 12.8278 13.8763 12.077C13.8657 11.5831 13.8165 11.0908 13.7294 10.6046H9.45716C9.50122 10.355 9.56285 10.1088 9.64159 9.86792H13.4699C13.3941 9.61395 13.2954 9.36737 13.175 9.13122H9.93857C10.0594 8.87807 10.1947 8.6321 10.3439 8.39453H12.8103C12.6595 8.12572 12.4738 7.87801 12.2581 7.65783H10.8951C11.1094 7.40674 11.3432 7.17296 11.5943 6.95865C10.3229 5.78376 8.65094 5.13859 6.91989 5.15495C6.91989 5.08514 6.91989 5.08514 6.88342 5.08514Z" fill="#FF5050"/>
<path d="M2.81436e-06 12.0426C-0.000819526 12.9565 0.178578 13.8616 0.527931 14.7061C0.877283 15.5505 1.38973 16.3179 2.03595 16.9641C2.68217 17.6103 3.44948 18.1227 4.29397 18.4721C5.13845 18.8214 6.04354 19.0008 6.95743 19C8.68407 18.9926 10.3477 18.3506 11.6318 17.1963C11.8834 16.969 12.1172 16.7228 12.331 16.4596H10.8951C10.7114 16.2355 10.5392 16.0022 10.3794 15.7604H12.8458C13.0026 15.5274 13.1382 15.2809 13.2511 15.0238H9.97506C9.85471 14.7876 9.75601 14.541 9.68017 14.2871H13.5085C13.7438 13.574 13.8679 12.8289 13.8763 12.078C13.8657 11.5842 13.8166 11.0919 13.7294 10.6057H9.45719C9.50124 10.3561 9.56287 10.1099 9.64162 9.86898H13.4699C13.3941 9.61502 13.2954 9.36844 13.175 9.13229H9.93859C10.0594 8.87914 10.1948 8.63317 10.3439 8.39559H12.8103C12.6595 8.12679 12.4738 7.87909 12.2581 7.65891H10.8951C11.1094 7.40782 11.3432 7.17402 11.5943 6.95972C10.3225 5.78596 8.65054 5.14194 6.91992 5.15915H6.88345" fill="#E52836"/>
<path d="M6.9574 19C8.68405 18.9925 10.3477 18.3506 11.6318 17.1963C11.8834 16.969 12.1172 16.7227 12.331 16.4596H10.8951C10.7114 16.2355 10.5392 16.0021 10.3793 15.7604H12.8457C13.0025 15.5274 13.1382 15.2809 13.2511 15.0237H9.97503C9.85468 14.7876 9.75597 14.541 9.68014 14.287H13.5084C13.7438 13.574 13.8679 12.8289 13.8763 12.078C13.8656 11.5841 13.8165 11.0919 13.7293 10.6057H9.45716C9.50121 10.3561 9.56283 10.1099 9.64158 9.86896H13.4699C13.3941 9.61499 13.2954 9.36842 13.175 9.13227H9.93544C10.0563 8.87912 10.1916 8.63315 10.3408 8.39557H12.8072C12.6563 8.12677 12.4706 7.87907 12.2549 7.65889H10.893C11.1073 7.40779 11.3411 7.174 11.5922 6.9597C10.3208 5.7848 8.64884 5.13964 6.9178 5.156H6.88342" fill="#CB2026"/>
<path d="M9.42275 13.8098L9.53321 13.1846C9.4725 13.2004 9.41091 13.2125 9.34877 13.2211C9.0914 13.2211 9.05389 13.0741 9.0914 13.0002L9.31231 11.7122H9.71764L9.8281 11.0131H9.46027L9.53426 10.5713H8.79756C8.79756 10.5713 8.35576 13.0012 8.35576 13.295C8.34465 13.3766 8.35192 13.4596 8.37703 13.538C8.40215 13.6164 8.44447 13.6882 8.50091 13.7482C8.55734 13.8081 8.62646 13.8546 8.70321 13.8844C8.77996 13.9142 8.86239 13.9264 8.94447 13.9202C9.11007 13.9189 9.27335 13.8812 9.42275 13.8098Z" fill="white"/>
<path d="M9.68118 12.6313C9.66281 12.8049 9.68351 12.9805 9.74174 13.1451C9.79997 13.3097 9.89426 13.4592 10.0177 13.5826C10.1412 13.7061 10.2907 13.8004 10.4553 13.8586C10.6199 13.9169 10.7955 13.9376 10.9691 13.9192C11.2317 13.936 11.4949 13.8984 11.7423 13.8087L11.8892 13.1095C11.6447 13.2173 11.3828 13.2798 11.116 13.294C10.3064 13.294 10.4533 12.7053 10.4533 12.7053H11.9621C12.0145 12.4872 12.0514 12.2658 12.0726 12.0425C12.083 11.8997 12.0625 11.7564 12.0126 11.6222C11.9626 11.4881 11.8844 11.3662 11.7831 11.265C11.6819 11.1637 11.5601 11.0855 11.4259 11.0356C11.2917 10.9856 11.1484 10.9651 11.0056 10.9755C10.2335 10.9015 9.68118 11.7112 9.68118 12.6313ZM10.9691 11.5643C11.3744 11.5643 11.3004 12.0425 11.3004 12.0801H10.4908C10.4908 12.0425 10.5648 11.5632 10.9691 11.5632V11.5643Z" fill="white"/>
<path d="M15.6446 13.8098L15.7915 13.0002C15.596 13.099 15.3842 13.1615 15.1663 13.1846C14.6505 13.1846 14.4296 12.7793 14.4296 12.3385C14.4296 11.4549 14.8714 10.9766 15.3862 10.9766C15.6238 10.9846 15.854 11.0613 16.0489 11.1975L16.1594 10.4243C15.8897 10.3158 15.6036 10.2534 15.3132 10.2399C14.4671 10.2399 13.62 10.9766 13.62 12.375C13.62 13.2951 14.0618 13.9213 14.9454 13.9213C15.1818 13.9093 15.4162 13.8719 15.6446 13.8098Z" fill="white"/>
<path d="M5.37364 10.9016C5.07283 10.8991 4.77387 10.9489 4.49003 11.0485L4.37958 11.6737C4.63766 11.5736 4.91245 11.5238 5.18921 11.5268C5.44659 11.5268 5.66749 11.5632 5.66749 11.7841C5.66749 11.9311 5.63102 11.9686 5.63102 11.9686H5.29966C4.67446 11.9686 3.97424 12.2259 3.97424 13.0731C3.97424 13.7358 4.41605 13.8827 4.67342 13.8827C4.96474 13.8785 5.24259 13.7594 5.44658 13.5514L5.41012 13.8462H6.07283L6.36771 11.8216C6.37616 11.6921 6.3556 11.5624 6.30752 11.4418C6.25945 11.3213 6.18508 11.213 6.08983 11.1248C5.99459 11.0367 5.88088 10.9709 5.75697 10.9323C5.63307 10.8936 5.50211 10.8831 5.37364 10.9016ZM5.52057 12.5583C5.52057 12.6688 5.44659 13.2575 5.00478 13.2575C4.96578 13.2585 4.92698 13.2516 4.89075 13.2371C4.85452 13.2227 4.82161 13.201 4.79403 13.1734C4.76644 13.1458 4.74476 13.1129 4.7303 13.0767C4.71583 13.0404 4.70889 13.0016 4.7099 12.9626C4.7099 12.7782 4.82034 12.5208 5.3726 12.5208C5.42039 12.5399 5.4705 12.5525 5.52161 12.5583H5.52057Z" fill="white"/>
<path d="M7.0679 13.8869C7.20569 13.9109 7.3471 13.904 7.48188 13.8666C7.61666 13.8292 7.74143 13.7623 7.84716 13.6707C7.95289 13.5792 8.03693 13.4652 8.09319 13.3372C8.14945 13.2091 8.1765 13.0702 8.17242 12.9304C8.17242 12.0103 7.28881 12.1937 7.28881 11.8258C7.28881 11.6414 7.43572 11.5685 7.69414 11.5685C7.80459 11.5685 8.20993 11.6049 8.20993 11.6049L8.32038 10.9422C8.09136 10.8882 7.85645 10.8634 7.62121 10.8682C7.06895 10.8682 6.51668 11.0891 6.51668 11.8248C6.51668 12.6719 7.43677 12.598 7.43677 12.9293C7.43677 13.1502 7.17939 13.1867 6.99495 13.1867C6.76997 13.181 6.54691 13.1438 6.33226 13.0762L6.2218 13.739C6.25723 13.8098 6.44166 13.8869 7.0679 13.8869Z" fill="white"/>
<path d="M21.7548 10.3128L21.6079 11.3069C21.5215 11.2018 21.415 11.115 21.2945 11.0516C21.1741 10.9883 21.0422 10.9496 20.9066 10.938C20.2439 10.938 19.6562 11.7477 19.6562 12.7094C19.6562 13.2982 19.9511 13.9244 20.5763 13.9244C20.7066 13.9241 20.8355 13.8978 20.9555 13.8472C21.0756 13.7966 21.1843 13.7226 21.2755 13.6295L21.239 13.8869H21.9757L22.528 10.3535L21.7548 10.3128ZM21.4235 12.2635C21.4235 12.6688 21.239 13.1835 20.8347 13.1835C20.5774 13.1835 20.4294 12.9626 20.4294 12.5948C20.4294 12.0061 20.6868 11.6383 21.0181 11.6383C21.2755 11.6383 21.4276 11.8217 21.4276 12.2635H21.4235Z" fill="white"/>
<path d="M1.3619 13.8463L1.80371 11.1965L1.87769 13.8463H2.39348L3.35004 11.1965L2.9447 13.8463H3.71786L4.30972 10.3128H3.09266L2.35597 12.4844L2.3195 10.3128H1.25145L0.66272 13.8463H1.3619Z" fill="white"/>
<path d="M12.7728 13.8462C12.9937 12.6313 13.0302 11.6372 13.546 11.8216C13.5879 11.5281 13.6747 11.2427 13.8034 10.9755H13.6564C13.3251 10.9755 13.0677 11.4173 13.0677 11.4173L13.1417 11.012H12.4425L11.9632 13.8837H12.7728V13.8462Z" fill="white"/>
<path d="M17.3368 10.9016C17.036 10.8991 16.737 10.9489 16.4532 11.0485L16.3427 11.6737C16.6008 11.5736 16.8756 11.5238 17.1524 11.5268C17.4097 11.5268 17.6306 11.5632 17.6306 11.7841C17.6306 11.931 17.5942 11.9686 17.5942 11.9686H17.2628C16.6376 11.9686 15.9374 12.2259 15.9374 13.0731C15.9374 13.7358 16.3792 13.8827 16.6366 13.8827C16.9279 13.8785 17.2058 13.7594 17.4097 13.5514L17.3733 13.8462H18.036L18.3309 11.8216C18.3417 11.6915 18.3228 11.5607 18.2755 11.439C18.2283 11.3173 18.1539 11.2079 18.0581 11.1193C17.9623 11.0306 17.8476 10.9649 17.7226 10.9272C17.5976 10.8894 17.4657 10.8807 17.3368 10.9016ZM17.5212 12.5583C17.5212 12.6688 17.4473 13.2575 17.0055 13.2575C16.9665 13.2585 16.9277 13.2516 16.8914 13.2371C16.8552 13.2227 16.8223 13.201 16.7947 13.1734C16.7671 13.1458 16.7454 13.1129 16.731 13.0767C16.7165 13.0404 16.7095 13.0016 16.7105 12.9626C16.7105 12.7782 16.821 12.5208 17.3733 12.5208C17.4848 12.5583 17.4848 12.5583 17.5212 12.5583Z" fill="white"/>
<path d="M18.9572 13.8462C19.1781 12.6313 19.2145 11.6372 19.7303 11.8216C19.7722 11.5281 19.859 11.2427 19.9877 10.9755H19.8408C19.5094 10.9755 19.252 11.4173 19.252 11.4173L19.326 11.012H18.6268L18.1486 13.8827H18.9582L18.9572 13.8462Z" fill="white"/>
<path d="M8.28184 13.294C8.27074 13.3756 8.278 13.4586 8.30312 13.537C8.32823 13.6154 8.37056 13.6872 8.42699 13.7471C8.48343 13.807 8.55255 13.8536 8.6293 13.8834C8.70605 13.9131 8.78849 13.9254 8.87058 13.9192C9.06024 13.9202 9.24813 13.8826 9.42283 13.8088L9.53329 13.1836C9.47258 13.1993 9.411 13.2115 9.34885 13.22C9.09148 13.22 9.05396 13.0731 9.09147 12.9991L9.31238 11.7112H9.71773L9.82816 11.012H9.46034L9.53224 10.5702" fill="#DCE5E5"/>
<path d="M10.0491 12.6313C10.0491 13.6618 10.3804 13.9192 10.9692 13.9192C11.2317 13.936 11.495 13.8984 11.7423 13.8087L11.8892 13.1095C11.6448 13.2173 11.3828 13.2798 11.1161 13.294C10.3064 13.294 10.4534 12.7053 10.4534 12.7053H11.9622C12.0145 12.4872 12.0514 12.2658 12.0726 12.0425C12.083 11.8997 12.0626 11.7564 12.0126 11.6222C11.9627 11.4881 11.8844 11.3662 11.7832 11.265C11.682 11.1637 11.5601 11.0855 11.4259 11.0356C11.2918 10.9856 11.1484 10.9651 11.0056 10.9755C10.2335 10.9015 10.0491 11.7112 10.0491 12.6313ZM10.9692 11.5643C11.3745 11.5643 11.4474 12.0425 11.4474 12.0801H10.4909C10.4909 12.0425 10.5649 11.5632 10.9692 11.5632V11.5643Z" fill="#DCE5E5"/>
<path d="M15.6446 13.8098L15.7915 13.0002C15.596 13.099 15.3842 13.1615 15.1663 13.1846C14.6505 13.1846 14.4296 12.7793 14.4296 12.3385C14.4296 11.4549 14.8714 10.9766 15.3862 10.9766C15.6238 10.9846 15.854 11.0613 16.0489 11.1975L16.1593 10.4243C15.8897 10.3158 15.6036 10.2534 15.3132 10.2399C14.4671 10.2399 13.9878 10.9766 13.9878 12.375C13.9878 13.2951 14.0618 13.9213 14.9443 13.9213C15.1811 13.9094 15.4158 13.872 15.6446 13.8098Z" fill="#DCE5E5"/>
<path d="M4.38056 11.7123C4.63863 11.6122 4.91342 11.5624 5.19019 11.5653C5.44756 11.5653 5.66847 11.6018 5.66847 11.8227C5.66847 11.9696 5.63199 12.0071 5.63199 12.0071H5.30064C4.67544 12.0071 3.97522 12.2645 3.97522 13.1117C3.97522 13.7744 4.41702 13.9213 4.6744 13.9213C4.96571 13.917 5.24357 13.798 5.44757 13.5899L5.41109 13.8848H6.07381L6.36869 11.8602C6.36869 11.0141 5.632 10.9766 5.33815 10.9766L4.38056 11.7123ZM5.89041 12.5594C5.81121 12.7391 5.68931 12.8967 5.53532 13.0186C5.38132 13.1404 5.19989 13.2228 5.0068 13.2586C4.9678 13.2596 4.929 13.2526 4.89277 13.2382C4.85654 13.2237 4.82363 13.202 4.79605 13.1744C4.76846 13.1468 4.74678 13.1139 4.73231 13.0777C4.71785 13.0415 4.71091 13.0027 4.71191 12.9637C4.71191 12.7792 4.82236 12.5219 5.37462 12.5219C5.54484 12.5488 5.71706 12.561 5.88937 12.5584L5.89041 12.5594Z" fill="#DCE5E5"/>
<path d="M6.2583 13.8098C6.53597 13.8731 6.82101 13.8979 7.10545 13.8838C7.24324 13.9078 7.38465 13.9009 7.51943 13.8635C7.65421 13.8261 7.77898 13.7592 7.88471 13.6676C7.99044 13.576 8.07448 13.4621 8.13074 13.3341C8.18699 13.206 8.21405 13.067 8.20997 12.9272C8.20997 12.0071 7.32634 12.1905 7.32634 11.8227C7.32634 11.6383 7.47327 11.5653 7.73169 11.5653C7.84214 11.5653 8.24747 11.6018 8.24747 11.6018L8.35793 10.9391C8.12891 10.8851 7.89399 10.8602 7.65874 10.8651C7.10648 10.8651 6.92205 11.086 6.92205 11.8217C6.92205 12.6688 7.47432 12.5948 7.47432 12.9262C7.47432 13.1471 7.21694 13.1836 7.0325 13.1836" fill="#DCE5E5"/>
<path d="M21.608 11.3059C21.5217 11.2012 21.4154 11.1148 21.2954 11.0516C21.1753 10.9885 21.0439 10.9499 20.9088 10.9381C20.2461 10.9381 20.0252 11.7477 20.0252 12.7094C20.0252 13.2982 19.9512 13.9244 20.5774 13.9244C20.7077 13.9241 20.8366 13.8978 20.9566 13.8472C21.0767 13.7966 21.1854 13.7226 21.2766 13.6295L21.2402 13.8869H21.9768L22.5291 10.3535L21.608 11.3059ZM21.5725 12.2676C21.5725 12.673 21.2412 13.1877 20.8359 13.1877C20.5785 13.1877 20.4305 12.9668 20.4305 12.599C20.4305 12.0103 20.6879 11.6424 21.0192 11.6424C21.0973 11.6436 21.1743 11.661 21.2453 11.6936C21.3163 11.7261 21.3798 11.7731 21.4316 11.8315C21.4835 11.89 21.5226 11.9585 21.5465 12.0329C21.5704 12.1073 21.5786 12.1858 21.5704 12.2635L21.5725 12.2676Z" fill="#DCE5E5"/>
<path d="M1.3619 13.8463L1.80371 11.1965L1.87769 13.8463H2.39348L3.35004 11.1965L2.9447 13.8463H3.71786L4.30972 10.3128H3.38963L2.35909 12.4844L2.3195 10.3128H1.91312L0.66272 13.8463H1.3619Z" fill="#DCE5E5"/>
<path d="M11.9996 13.8462H12.7728C12.9937 12.6313 13.0302 11.6372 13.546 11.8216C13.5878 11.5281 13.6747 11.2427 13.8034 10.9755H13.6564C13.3251 10.9755 13.0677 11.4173 13.0677 11.4173L13.1417 11.012" fill="#DCE5E5"/>
<path d="M16.3438 11.7123C16.6019 11.6122 16.8767 11.5624 17.1535 11.5653C17.4108 11.5653 17.6317 11.6018 17.6317 11.8227C17.6317 11.9696 17.5953 12.0071 17.5953 12.0071H17.2639C16.6387 12.0071 15.9385 12.2645 15.9385 13.1117C15.9385 13.7744 16.3803 13.9213 16.6377 13.9213C16.929 13.917 17.2068 13.798 17.4108 13.5899L17.3744 13.8848H18.0371L18.3319 11.8602C18.3319 11.0141 17.5953 10.9766 17.3014 10.9766L16.3438 11.7123ZM17.8537 12.5594C17.7745 12.7391 17.6526 12.8967 17.4986 13.0186C17.3446 13.1404 17.1632 13.2228 16.9701 13.2586C16.9311 13.2596 16.8923 13.2526 16.856 13.2382C16.8198 13.2237 16.7869 13.202 16.7593 13.1744C16.7317 13.1468 16.7101 13.1139 16.6956 13.0777C16.6811 13.0415 16.6742 13.0027 16.6752 12.9637C16.6752 12.7792 16.7856 12.5219 17.3379 12.5219C17.5082 12.5477 17.6804 12.5599 17.8526 12.5584L17.8537 12.5594Z" fill="#DCE5E5"/>
<path d="M18.184 13.8462H18.9571C19.178 12.6313 19.2145 11.6372 19.7303 11.8216C19.7721 11.5281 19.859 11.2427 19.9876 10.9755H19.8407C19.5094 10.9755 19.252 11.4173 19.252 11.4173L19.326 11.012" fill="#DCE5E5"/>
</svg>
