<svg width="25" height="24" viewBox="0 0 25 24" fill="none" xmlns="http://www.w3.org/2000/svg">
<path d="M12.1886 7.6183C11.1704 7.776 10.2422 8.29269 9.57169 9.07501C8.9012 9.85733 8.53266 10.8537 8.53266 11.884C8.53266 12.9143 8.9012 13.9107 9.57169 14.693C10.2422 15.4753 11.1704 15.992 12.1886 16.1497C13.2068 15.992 14.135 15.4753 14.8055 14.693C15.4759 13.9107 15.8445 12.9143 15.8445 11.884C15.8445 10.8537 15.4759 9.85733 14.8055 9.07501C14.135 8.29269 13.2068 7.776 12.1886 7.6183ZM13.7143 14.0172C13.7143 14.0981 13.6821 14.1757 13.6249 14.2329C13.5677 14.2902 13.4901 14.3223 13.4091 14.3223H10.9714C10.8905 14.3223 10.8129 14.2902 10.7557 14.2329C10.6984 14.1757 10.6663 14.0981 10.6663 14.0172V13.408C10.6663 13.3271 10.6984 13.2495 10.7557 13.1923C10.8129 13.135 10.8905 13.1029 10.9714 13.1029H11.5806V10.992L11.5623 11.0034C11.529 11.0258 11.4916 11.0413 11.4523 11.0491C11.413 11.057 11.3726 11.057 11.3333 11.0491C11.294 11.0413 11.2566 11.0257 11.2233 11.0033C11.1901 10.981 11.1616 10.9523 11.1394 10.9189L10.7966 10.4114C10.7742 10.3782 10.7587 10.3408 10.7509 10.3015C10.743 10.2622 10.743 10.2217 10.7509 10.1824C10.7588 10.1431 10.7743 10.1058 10.7967 10.0725C10.819 10.0392 10.8477 10.0107 10.8811 9.98858L11.4651 9.59888C11.6155 9.49884 11.792 9.44555 11.9726 9.44573H12.4903C12.5712 9.44573 12.6488 9.47788 12.7061 9.5351C12.7633 9.59233 12.7954 9.66994 12.7954 9.75087V13.1029H13.4046C13.4855 13.1029 13.5631 13.135 13.6203 13.1923C13.6776 13.2495 13.7097 13.3271 13.7097 13.408L13.7143 14.0172ZM23.1577 4.57144H1.21829C0.895271 4.57175 0.585571 4.7002 0.357164 4.9286C0.128757 5.15701 0.000304735 5.46672 2.14338e-06 5.78973V17.9783C-0.000298272 18.1385 0.0309836 18.2973 0.0920597 18.4454C0.153136 18.5935 0.242808 18.7282 0.355952 18.8416C0.469095 18.9551 0.60349 19.0452 0.751455 19.1066C0.89942 19.1681 1.05805 19.1999 1.21829 19.2H23.1611C23.4842 19.1997 23.7939 19.0713 24.0223 18.8429C24.2507 18.6144 24.3791 18.3047 24.3794 17.9817V5.78973C24.3793 5.6295 24.3476 5.47087 24.2861 5.3229C24.2246 5.17493 24.1345 5.04054 24.0211 4.92739C23.9076 4.81425 23.7729 4.72458 23.6248 4.6635C23.4767 4.60243 23.318 4.57114 23.1577 4.57144ZM22.5486 14.9314C21.9023 14.9324 21.2827 15.1899 20.8263 15.6475C20.3698 16.105 20.1137 16.7251 20.1143 17.3714H4.26629C4.26659 17.0511 4.20376 16.7339 4.08138 16.4379C3.95901 16.1419 3.7795 15.8728 3.55311 15.6462C3.32671 15.4196 3.05788 15.2399 2.76197 15.1172C2.46607 14.9946 2.14889 14.9314 1.82857 14.9314V8.83773C2.4751 8.83773 3.09514 8.5809 3.5523 8.12374C4.00946 7.66658 4.26629 7.04654 4.26629 6.40001H20.1143C20.1143 7.04654 20.3711 7.66658 20.8283 8.12374C21.2854 8.5809 21.9055 8.83773 22.552 8.83773L22.5486 14.9314Z" fill="#0F9526"/>
</svg>
