<svg width="24" height="24" viewBox="0 0 24 24" fill="none" xmlns="http://www.w3.org/2000/svg">
<path d="M20.6752 1.71429H2.9536C2.17066 1.71475 1.41989 2.04807 0.866123 2.64107C0.312353 3.23407 0.000848112 4.03829 4.33409e-07 4.87715V19.1177C-0.000209738 19.5335 0.0760207 19.9453 0.224339 20.3295C0.372658 20.7138 0.59016 21.063 0.864427 21.3571C1.13869 21.6513 1.46436 21.8847 1.82282 22.044C2.18128 22.2034 2.56552 22.2855 2.9536 22.2857H20.6752C21.4585 22.2857 22.2098 21.9523 22.7637 21.3588C23.3176 20.7654 23.6288 19.9604 23.6288 19.1211V4.87715C23.628 4.03829 23.3164 3.23407 22.7627 2.64107C22.2089 2.04807 21.4581 1.71475 20.6752 1.71429ZM22.152 19.1211C22.152 19.5408 21.9964 19.9433 21.7195 20.24C21.4425 20.5367 21.0669 20.7034 20.6752 20.7034H2.9536C2.56193 20.7034 2.1863 20.5367 1.90935 20.24C1.63239 19.9433 1.4768 19.5408 1.4768 19.1211V4.87715C1.4768 4.4575 1.63239 4.05504 1.90935 3.75831C2.1863 3.46157 2.56193 3.29487 2.9536 3.29487H20.6752C20.8692 3.29464 21.0613 3.33541 21.2406 3.41485C21.4199 3.49429 21.5828 3.61083 21.7199 3.7578C21.8571 3.90478 21.9659 4.0793 22.04 4.27137C22.1142 4.46344 22.1522 4.6693 22.152 4.87715V19.1211ZM14.0304 4.87715C13.2738 4.88569 12.5242 5.03356 11.8144 5.31429C10.81 4.91962 9.73145 4.79056 8.67049 4.9381C7.60954 5.08563 6.5975 5.5054 5.72038 6.16172C4.84326 6.81805 4.12697 7.69154 3.63239 8.70797C3.13781 9.7244 2.87954 10.8537 2.87954 12C2.87954 13.1463 3.13781 14.2756 3.63239 15.292C4.12697 16.3085 4.84326 17.182 5.72038 17.8383C6.5975 18.4946 7.60954 18.9144 8.67049 19.0619C9.73145 19.2095 10.81 19.0804 11.8144 18.6857C12.7255 19.0323 13.6964 19.1614 14.6589 19.0639C15.6215 18.9664 16.5525 18.6447 17.3869 18.1213C18.2212 17.5979 18.9388 16.8854 19.4892 16.0338C20.0397 15.1821 20.4098 14.2119 20.5736 13.191C20.7375 12.17 20.6911 11.1231 20.4377 10.1234C20.1844 9.12366 19.7302 8.19535 19.1069 7.40341C18.4836 6.61148 17.7063 5.97505 16.8294 5.53868C15.9526 5.1023 14.9973 4.87653 14.0304 4.87715ZM9.6 17.5354C8.91357 17.5484 8.23161 17.4147 7.59393 17.1422C6.95624 16.8697 6.3756 16.4638 5.88589 15.9483C5.39619 15.4328 5.00723 14.8179 4.74172 14.1396C4.4762 13.4612 4.33946 12.733 4.33946 11.9974C4.33946 11.2619 4.4762 10.5337 4.74172 9.85532C5.00723 9.17698 5.39619 8.56211 5.88589 8.04657C6.3756 7.53104 6.95624 7.12518 7.59393 6.85268C8.23161 6.58018 8.91357 6.4465 9.6 6.45944C9.6912 6.45944 9.7776 6.48344 9.8688 6.48858C9.09366 7.14664 8.46742 7.98397 8.03692 8.93794C7.60642 9.8919 7.38281 10.9378 7.38281 11.9974C7.38281 13.0571 7.60642 14.103 8.03692 15.0569C8.46742 16.0109 9.09366 16.8482 9.8688 17.5063C9.776 17.5097 9.6912 17.5354 9.6 17.5354ZM14.0304 17.5354C13.0078 17.5354 12.0082 17.2105 11.158 16.6017C10.3078 15.993 9.64519 15.1277 9.25401 14.1154C8.86283 13.1031 8.76064 11.9893 8.96037 10.9147C9.1601 9.84021 9.65277 8.85329 10.3761 8.0788C11.0994 7.30432 12.0208 6.77706 13.0238 6.56373C14.0268 6.3504 15.0664 6.46058 16.0109 6.88033C16.9555 7.30008 17.7627 8.01054 18.3303 8.92185C18.898 9.83316 19.2006 10.9044 19.2 12C19.1992 13.4684 18.6541 14.8764 17.6847 15.9144C16.7153 16.9523 15.4009 17.5354 14.0304 17.5354Z" fill="#363636" fill-opacity="0.4"/>
</svg>
