<svg width="24" height="24" viewBox="0 0 24 24" fill="none" xmlns="http://www.w3.org/2000/svg">
<path d="M4.26762 1.00245C4.53841 1.00395 4.80145 1.08674 5.01769 1.23852L5.06719 1.27344L6.4428 2.75831L8.42597 1.23852C8.64512 1.08408 8.91244 1.00051 9.18728 1.00051C9.46212 1.00051 9.72943 1.08408 9.94859 1.23852L9.96659 1.25109L11.9993 2.81L14.0514 1.23852C14.2706 1.08408 14.5379 1.00051 14.8127 1.00051C15.0876 1.00051 15.3549 1.08408 15.5741 1.23852L15.5921 1.25109L17.5572 2.75831L18.9268 1.27065L18.9763 1.23572C19.1644 1.10432 19.388 1.02432 19.6222 1.00473C19.8564 0.985131 20.0918 1.02671 20.302 1.12479C20.5121 1.22287 20.6888 1.37357 20.8121 1.55997C20.9354 1.74637 21.0005 1.96108 21 2.18001V21.8158C20.9992 22.1287 20.8651 22.4286 20.6272 22.6496C20.3893 22.8706 20.067 22.9947 19.7309 22.9947C19.4598 22.9934 19.1966 22.9101 18.9808 22.7573L18.9313 22.7224L17.5632 21.2361L15.5741 22.7615C15.3549 22.9159 15.0876 22.9995 14.8127 22.9995C14.5379 22.9995 14.2706 22.9159 14.0514 22.7615L14.0334 22.7489L11.9993 21.19L9.94859 22.7615C9.72943 22.9159 9.46212 22.9995 9.18728 22.9995C8.91244 22.9995 8.64512 22.9159 8.42597 22.7615L8.40796 22.7489L6.4428 21.2417L5.07319 22.7293L5.02369 22.7643C4.83534 22.8959 4.61126 22.9759 4.37669 22.9954C4.14213 23.0148 3.90639 22.9729 3.69604 22.8743C3.48569 22.7757 3.30909 22.6244 3.18611 22.4373C3.06314 22.2503 2.99869 22.0351 3.00002 21.8158V2.18001C3.00121 1.86756 3.13524 1.56826 3.37279 1.34758C3.61034 1.12691 3.93208 1.00281 4.26762 1.00245ZM4.31263 2.05569C4.2983 2.05035 4.28305 2.04751 4.26762 2.0473C4.24885 2.04712 4.23023 2.05042 4.21285 2.05703C4.19547 2.06363 4.17968 2.0734 4.16641 2.08576C4.15313 2.09812 4.14264 2.11282 4.13555 2.129C4.12846 2.14519 4.12491 2.16253 4.12511 2.18001V21.8158C4.12387 21.8338 4.12665 21.8519 4.13327 21.8689C4.1399 21.886 4.15022 21.9015 4.1636 21.9146C4.17698 21.9277 4.19313 21.9381 4.21103 21.9452C4.22893 21.9522 4.2482 21.9557 4.26762 21.9555C4.28324 21.9544 4.2985 21.9506 4.31263 21.9443L6.30329 19.7806L9.11302 21.9303C9.1353 21.944 9.16137 21.9512 9.18803 21.9512C9.21469 21.9512 9.24076 21.944 9.26303 21.9303L11.9993 19.835L14.7355 21.9303C14.7578 21.944 14.7838 21.9512 14.8105 21.9512C14.8371 21.9512 14.8632 21.944 14.8855 21.9303L17.6892 19.7806L19.6814 21.9443C19.6957 21.9498 19.711 21.9526 19.7264 21.9527C19.7647 21.9527 19.8015 21.9392 19.8294 21.9148C19.8573 21.8904 19.8741 21.857 19.8764 21.8214V2.18001C19.8764 2.16265 19.8727 2.14546 19.8655 2.12943C19.8583 2.11341 19.8478 2.09887 19.8346 2.08666C19.8213 2.07445 19.8056 2.06481 19.7883 2.05829C19.771 2.05178 19.7525 2.04852 19.7339 2.0487C19.7175 2.04855 19.7012 2.0514 19.6859 2.05708L17.6922 4.21524L14.8885 2.06965C14.8662 2.05602 14.8401 2.04875 14.8135 2.04875C14.7868 2.04875 14.7608 2.05602 14.7385 2.06965L12.0023 4.16496L9.26303 2.06965C9.24076 2.05602 9.21469 2.04875 9.18803 2.04875C9.16137 2.04875 9.1353 2.05602 9.11302 2.06965L6.30629 4.21524L4.31263 2.05569ZM6.72633 6.89304H17.2737C17.5159 6.89341 17.748 6.98316 17.9192 7.14261C18.0905 7.30207 18.1869 7.51823 18.1873 7.74374V8.40585C18.1833 8.62917 18.0854 8.84212 17.9145 8.99887C17.7437 9.15562 17.5135 9.24364 17.2737 9.24397H6.72633C6.48647 9.24364 6.25634 9.15562 6.08548 8.99887C5.91462 8.84212 5.81668 8.62917 5.81275 8.40585V7.74513C5.81275 7.51939 5.90895 7.30286 6.08024 7.14311C6.25153 6.98335 6.48389 6.89341 6.72633 6.89304ZM17.0637 7.94069H6.93784V8.20191H17.0637V7.94069ZM6.72633 10.821H17.2737C17.5159 10.8214 17.748 10.9112 17.9192 11.0706C18.0905 11.2301 18.1869 11.4462 18.1873 11.6717V12.3269C18.1869 12.5524 18.0905 12.7685 17.9192 12.928C17.748 13.0874 17.5159 13.1772 17.2737 13.1776H6.72633C6.48415 13.1772 6.25201 13.0874 6.08077 12.928C5.90953 12.7685 5.81315 12.5524 5.81275 12.3269V11.6731C5.81275 11.4474 5.90895 11.2309 6.08024 11.0711C6.25153 10.9113 6.48389 10.8214 6.72633 10.821ZM17.0637 11.8687H6.93784V12.1299H17.0637V11.8687ZM6.72633 14.7504H17.2737C17.5159 14.7508 17.748 14.8405 17.9192 15C18.0905 15.1595 18.1869 15.3756 18.1873 15.6011V16.2563C18.1869 16.4818 18.0905 16.6979 17.9192 16.8574C17.748 17.0168 17.5159 17.1066 17.2737 17.1069H6.72633C6.48415 17.1066 6.25201 17.0168 6.08077 16.8574C5.90953 16.6979 5.81315 16.4818 5.81275 16.2563V15.6011C5.81315 15.3756 5.90953 15.1595 6.08077 15C6.25201 14.8405 6.48415 14.7508 6.72633 14.7504ZM17.0622 15.7981H6.93784V16.0593H17.0637L17.0622 15.7981Z" fill="#202020"/>
</svg>
