<svg width="24" height="24" viewBox="0 0 24 24" fill="none" xmlns="http://www.w3.org/2000/svg">
<path fill-rule="evenodd" clip-rule="evenodd" d="M2.50747 10.8054C2.50747 6.22257 6.22257 2.50747 10.8054 2.50747C15.3882 2.50747 19.1033 6.22257 19.1033 10.8054C19.1033 13.043 18.2176 15.0738 16.7777 16.5662C16.7389 16.5968 16.7015 16.6299 16.6658 16.6657C16.63 16.7015 16.5968 16.7389 16.5663 16.7777C15.0738 18.2176 13.043 19.1033 10.8054 19.1033C6.22257 19.1033 2.50747 15.3882 2.50747 10.8054ZM17.5082 19.2812C15.6662 20.7398 13.3375 21.6108 10.8054 21.6108C4.83774 21.6108 0 16.773 0 10.8054C0 4.83774 4.83774 0 10.8054 0C16.773 0 21.6108 4.83774 21.6108 10.8054C21.6108 13.3375 20.7399 15.6661 19.2812 17.5081L23.6328 21.8597C24.1225 22.3494 24.1225 23.1432 23.6328 23.6328C23.1432 24.1224 22.3494 24.1224 21.8598 23.6328L17.5082 19.2812Z" fill="#202020"/>
</svg>
