<svg width="24" height="24" viewBox="0 0 24 24" fill="none" xmlns="http://www.w3.org/2000/svg">
<path d="M20.9564 16.0274C20.3401 17.731 19.3492 19.2746 18.057 20.5444C16.4365 22.0649 14.5019 23.211 12.3899 23.9018C12.2128 23.9639 12.0267 23.9969 11.839 23.9994H11.8182C11.7053 23.999 11.5927 23.9877 11.4819 23.9657C11.4033 23.9498 11.3257 23.9286 11.2499 23.9025C9.13556 23.213 7.19861 22.0673 5.57607 20.5464C4.28311 19.2776 3.29196 17.7343 2.67594 16.0307C1.50365 12.8528 1.57024 9.35078 1.62404 6.53741V6.49437C1.6348 6.26233 1.64153 6.01819 1.64556 5.74849C1.65836 5.10842 1.91204 4.49671 2.35598 4.03544C2.79992 3.57417 3.40147 3.29726 4.04059 3.25998C6.5598 3.2073 8.96346 2.19304 10.7589 0.425094L10.775 0.410297C11.059 0.148345 11.4312 0.00289917 11.8175 0.00289917C12.2039 0.00289917 12.576 0.148345 12.86 0.410297L12.8755 0.425094C14.6714 2.19148 17.0746 3.20447 19.5931 3.25662C20.2322 3.2939 20.8338 3.5708 21.2777 4.03207C21.7217 4.49335 21.9753 5.10505 21.9881 5.74513C21.9922 6.01415 21.9989 6.26031 22.0097 6.49101V6.51253C22.0655 9.33127 22.1314 12.8401 20.9564 16.0274Z" fill="#B2B2B2"/>
<path d="M20.9557 16.028C20.3394 17.7317 19.3486 19.2753 18.0563 20.545C16.4358 22.0655 14.5012 23.2117 12.3892 23.9025C12.2121 23.9646 12.0261 23.9975 11.8384 24V0C12.218 0.0052725 12.5824 0.150669 12.8613 0.40825L12.8768 0.423047C14.6727 2.18943 17.076 3.20242 19.5945 3.25457C20.2336 3.29185 20.8351 3.56876 21.2791 4.03003C21.723 4.4913 21.9767 5.10301 21.9895 5.74308C21.9935 6.01211 22.0002 6.25827 22.011 6.48896V6.50712C22.0648 9.33191 22.1314 12.84 20.9557 16.028Z" fill="#B2B2B2"/>
<path d="M17.798 12.0007C17.7968 13.5829 17.1692 15.1002 16.0524 16.221C14.9356 17.3418 13.4206 17.9749 11.8384 17.9818H11.8175C10.2313 17.9818 8.71005 17.3517 7.58843 16.2301C6.46681 15.1085 5.83669 13.5872 5.83669 12.001C5.83669 10.4148 6.46681 8.89354 7.58843 7.77192C8.71005 6.65029 10.2313 6.02017 11.8175 6.02017H11.8384C13.4204 6.0271 14.9354 6.66008 16.0522 7.78073C17.1689 8.90139 17.7966 10.4186 17.798 12.0007Z" fill="#F2F2F2"/>
<path d="M17.798 12.0007C17.7968 13.5829 17.1692 15.1002 16.0524 16.221C14.9356 17.3418 13.4206 17.9749 11.8384 17.9818V6.02151C13.4202 6.02845 14.935 6.66124 16.0517 7.7816C17.1684 8.90197 17.7963 10.4188 17.798 12.0007Z" fill="#F2F2F2"/>
<path d="M14.5347 11.1398L11.8444 13.8334L11.2627 14.4152C11.1305 14.5472 10.9514 14.6213 10.7646 14.6213C10.5778 14.6213 10.3987 14.5472 10.2666 14.4152L9.01491 13.1635C8.94626 13.0989 8.89129 13.0212 8.85324 12.9349C8.81519 12.8487 8.79485 12.7557 8.79342 12.6614C8.79199 12.5672 8.80949 12.4736 8.8449 12.3862C8.88032 12.2988 8.93292 12.2195 8.99958 12.1528C9.06624 12.0861 9.14561 12.0335 9.23297 11.9981C9.32034 11.9627 9.41393 11.9452 9.5082 11.9466C9.60246 11.9481 9.69547 11.9684 9.78173 12.0065C9.86798 12.0445 9.94572 12.0995 10.0103 12.1681L10.7643 12.9221L13.542 10.1444C13.6753 10.0189 13.8522 9.95031 14.0353 9.95308C14.2183 9.95586 14.3931 10.0298 14.5225 10.1593C14.652 10.2887 14.7259 10.4635 14.7287 10.6465C14.7315 10.8295 14.6628 11.0065 14.5374 11.1398H14.5347Z" fill="#B2B2B2"/>
<path d="M14.532 11.1398L11.8417 13.8334V11.8413L13.54 10.1437C13.6733 10.0182 13.8502 9.94964 14.0332 9.95241C14.2163 9.95519 14.3911 10.0291 14.5205 10.1586C14.6499 10.288 14.7239 10.4628 14.7267 10.6458C14.7294 10.8289 14.6608 11.0058 14.5354 11.1391L14.532 11.1398Z" fill="#B2B2B2"/>
</svg>
