<svg width="24" height="24" viewBox="0 0 24 24" fill="none" xmlns="http://www.w3.org/2000/svg">
<path fill-rule="evenodd" clip-rule="evenodd" d="M7.4115 15.214H19.6311C19.7764 15.2147 19.918 15.1683 20.0348 15.0819C20.1516 14.9954 20.2374 14.8735 20.2792 14.7343L22.9743 5.48476C23.0028 5.3863 23.0077 5.28249 22.9885 5.1818C22.9693 5.08111 22.9266 4.98637 22.8638 4.90531C22.8011 4.82163 22.7197 4.75371 22.6261 4.70694C22.5326 4.66016 22.4294 4.6358 22.3248 4.6358H5.85509L5.37401 2.51746C5.33878 2.36971 5.25465 2.2382 5.13528 2.14427C5.01591 2.05034 4.8683 1.9995 4.71641 2H0.673773C0.497388 1.99997 0.328022 2.0691 0.202045 2.19256C0.0760686 2.31602 0.0035277 2.48395 0 2.6603C0.0035277 2.83665 0.0760686 3.00459 0.202045 3.12804C0.328022 3.2515 0.497388 3.32063 0.673773 3.3206H4.17739L6.60298 14.0552C6.24397 14.2066 5.93751 14.4603 5.72183 14.7848C5.50614 15.1093 5.3908 15.4901 5.39018 15.8797C5.39588 16.4105 5.61191 16.9173 5.99087 17.2889C6.36983 17.6605 6.88075 17.8666 7.4115 17.862H8.63603C8.12016 17.9026 7.63339 18.1257 7.26489 18.4942C6.8564 18.9027 6.6266 19.4565 6.62589 20.0342C6.62589 20.4652 6.75367 20.8864 6.9931 21.2448C7.23253 21.6031 7.57285 21.8824 7.971 22.0473C8.36916 22.2122 8.80729 22.2554 9.22997 22.1713C9.65265 22.0873 10.0409 21.8797 10.3456 21.575C10.6504 21.2703 10.8579 20.882 10.942 20.4593C11.0261 20.0366 10.9829 19.5985 10.818 19.2003C10.6531 18.8022 10.3738 18.4619 10.0154 18.2225C9.70477 18.0149 9.3468 17.8912 8.97623 17.862H17.7455C17.2296 17.9026 16.7428 18.1257 16.3743 18.4942C15.9658 18.9027 15.736 19.4565 15.7353 20.0342C15.7353 20.4652 15.8631 20.8864 16.1026 21.2448C16.342 21.6031 16.6823 21.8824 17.0804 22.0473C17.4786 22.2122 17.9167 22.2554 18.3394 22.1713C18.7621 22.0873 19.1504 21.8797 19.4551 21.575C19.7598 21.2703 19.9674 20.882 20.0514 20.4593C20.1355 20.0366 20.0923 19.5985 19.9274 19.2003C19.7625 18.8022 19.4832 18.4619 19.1249 18.2225C18.8142 18.0149 18.4562 17.8912 18.0857 17.862H19.6284C19.8037 17.862 19.9718 17.7923 20.0957 17.6684C20.2197 17.5444 20.2893 17.3763 20.2893 17.201C20.2893 17.0257 20.2197 16.8576 20.0957 16.7336C19.9718 16.6097 19.8037 16.54 19.6284 16.54H7.4115C7.23638 16.54 7.06843 16.4705 6.9446 16.3466C6.82077 16.2228 6.75121 16.0549 6.75121 15.8797C6.75121 15.7046 6.82077 15.5367 6.9446 15.4128C7.06843 15.289 7.23638 15.2194 7.4115 15.2194V15.214ZM21.426 5.96448L19.1203 13.8921H7.95052L6.15424 5.96448H21.426ZM8.80487 19.3079C8.94853 19.3079 9.08896 19.3505 9.2084 19.4303C9.32784 19.5101 9.42094 19.6235 9.47591 19.7563C9.53089 19.889 9.54527 20.035 9.51724 20.1759C9.48922 20.3168 9.42003 20.4462 9.31845 20.5478C9.21687 20.6494 9.08746 20.7185 8.94657 20.7466C8.80567 20.7746 8.65964 20.7602 8.52692 20.7052C8.3942 20.6503 8.28076 20.5572 8.20095 20.4377C8.12114 20.3183 8.07854 20.1779 8.07854 20.0342C8.0789 19.8417 8.15553 19.6572 8.29167 19.521C8.4278 19.3849 8.61235 19.3082 8.80487 19.3079ZM18.3178 19.4303C18.1984 19.3505 18.058 19.3079 17.9143 19.3079C17.7218 19.3082 17.5373 19.3849 17.4011 19.521C17.265 19.6572 17.1883 19.8417 17.188 20.0342C17.188 20.1779 17.2306 20.3183 17.3104 20.4377C17.3902 20.5572 17.5036 20.6503 17.6364 20.7052C17.7691 20.7602 17.9151 20.7746 18.056 20.7466C18.1969 20.7185 18.3263 20.6494 18.4279 20.5478C18.5295 20.4462 18.5986 20.3168 18.6267 20.1759C18.6547 20.035 18.6403 19.889 18.5853 19.7563C18.5304 19.6235 18.4373 19.5101 18.3178 19.4303Z" fill="#202020"/>
</svg>
