<svg width="14" height="14" viewBox="0 0 14 14" fill="none" xmlns="http://www.w3.org/2000/svg">
<path d="M13.25 3H0.75C0.335786 3 0 3.33579 0 3.75C0 4.16421 0.335786 4.5 0.75 4.5H13.25C13.6642 4.5 14 4.16421 14 3.75C14 3.33579 13.6642 3 13.25 3Z" fill="#B2B2B2"/>
<path d="M13.25 3.5H0.75C0.611929 3.5 0.5 3.61193 0.5 3.75C0.5 3.88807 0.611929 4 0.75 4H13.25C13.3881 4 13.5 3.88807 13.5 3.75C13.5 3.61193 13.3881 3.5 13.25 3.5Z" stroke="#B2B2B2"/>
<path d="M8.75 6.89999H0.75C0.335786 6.89999 0 7.23578 0 7.64999C0 8.06421 0.335786 8.39999 0.75 8.39999H8.75C9.16421 8.39999 9.5 8.06421 9.5 7.64999C9.5 7.23578 9.16421 6.89999 8.75 6.89999Z" fill="#B2B2B2"/>
<path d="M8.75 7.39999H0.75C0.611929 7.39999 0.5 7.51192 0.5 7.64999C0.5 7.78807 0.611929 7.89999 0.75 7.89999H8.75C8.88807 7.89999 9 7.78807 9 7.64999C9 7.51192 8.88807 7.39999 8.75 7.39999Z" stroke="#B2B2B2"/>
<path d="M3.75 10.8H0.75C0.335786 10.8 0 11.1358 0 11.55C0 11.9642 0.335786 12.3 0.75 12.3H3.75C4.16421 12.3 4.5 11.9642 4.5 11.55C4.5 11.1358 4.16421 10.8 3.75 10.8Z" fill="#B2B2B2"/>
<path d="M3.75 11.3H0.75C0.611929 11.3 0.5 11.4119 0.5 11.55C0.5 11.6881 0.611929 11.8 0.75 11.8H3.75C3.88807 11.8 4 11.6881 4 11.55C4 11.4119 3.88807 11.3 3.75 11.3Z" stroke="#B2B2B2"/>
</svg>
