<svg width="25" height="24" viewBox="0 0 25 24" fill="none" xmlns="http://www.w3.org/2000/svg">
<path d="M4.62778 14.1411L9.85878 19.3795L10.9054 18.3314L5.67038 13.095L4.62778 14.1411ZM20.1231 8.14063C20.543 7.71946 20.8288 7.18308 20.9445 6.59928C21.0601 6.01548 21.0003 5.41045 20.7726 4.86067C20.545 4.31088 20.1597 3.84102 19.6655 3.51045C19.1712 3.17988 18.5902 3.00345 17.9959 3.00345C17.4016 3.00345 16.8206 3.17988 16.3263 3.51045C15.8321 3.84102 15.4468 4.31088 15.2192 4.86067C14.9915 5.41045 14.9317 6.01548 15.0473 6.59928C15.163 7.18308 15.4488 7.71946 15.8687 8.14063C16.1478 8.42058 16.4795 8.6425 16.8446 8.7936C17.2096 8.9447 17.6009 9.02201 17.996 9.02108C18.391 9.02016 18.782 8.941 19.1463 8.78818C19.5107 8.63536 19.8413 8.41189 20.1191 8.13063L20.1231 8.14063ZM16.9533 4.91438C17.1635 4.70349 17.4315 4.55979 17.7233 4.50147C18.0151 4.44315 18.3177 4.47283 18.5926 4.58675C18.8676 4.70067 19.1026 4.89371 19.268 5.14145C19.4334 5.38918 19.5217 5.68047 19.5217 5.97846C19.5217 6.27646 19.4334 6.56775 19.268 6.81548C19.1026 7.06322 18.8676 7.25626 18.5926 7.37018C18.3177 7.4841 18.0151 7.51378 17.7233 7.45545C17.4315 7.39713 17.1635 7.25344 16.9533 7.04255C16.6718 6.76017 16.5137 6.37747 16.5137 5.97846C16.5137 5.57946 16.6718 5.19676 16.9533 4.91438ZM12.4773 0L0.433385 12.0449C0.295993 12.1824 0.187001 12.3456 0.112638 12.5253C0.0382753 12.705 0 12.8975 0 13.092C0 13.2865 0.0382753 13.4791 0.112638 13.6587C0.187001 13.8384 0.295993 14.0016 0.433385 14.1391L9.85878 23.5658C9.99621 23.7035 10.1594 23.8127 10.339 23.8872C10.5185 23.9617 10.711 24 10.9054 24C11.0998 24 11.2922 23.9617 11.4718 23.8872C11.6514 23.8127 11.8145 23.7035 11.952 23.5658L24.0019 11.5229V0H12.4773ZM22.424 11.0009L11.4287 22.0017C11.2895 22.14 11.1014 22.2176 10.9054 22.2176C10.7093 22.2176 10.5212 22.14 10.3821 22.0017L2.00528 13.6171C1.93644 13.5483 1.88181 13.4666 1.84454 13.3767C1.80727 13.2868 1.78809 13.1904 1.78809 13.093C1.78809 12.9957 1.80727 12.8993 1.84454 12.8093C1.88181 12.7194 1.93644 12.6377 2.00528 12.569L12.9906 1.56812L22.4979 1.50012L22.424 11.0009Z" fill="#363636" fill-opacity="0.4"/>
</svg>
