<svg width="24" height="24" viewBox="0 0 24 24" fill="none" xmlns="http://www.w3.org/2000/svg">
<path d="M21.8286 17.4575C21.2018 16.9045 15.5801 15.7092 14.499 15.4819C15.8025 14.6643 16.8633 13.5507 17.5823 12.2451C18.3013 10.9396 18.655 9.48474 18.6103 8.01653C18.6103 4.14013 17.4086 1 11.9952 1C6.5819 1 5.38172 4.14013 5.38172 8.01653C5.33579 9.48987 5.69178 10.9499 6.41607 12.2586C7.14037 13.5674 8.20906 14.6818 9.52124 15.4965C8.28189 15.7517 2.81371 16.8972 2.17759 17.4604C1.53105 18.1377 1.12816 18.988 1.02583 19.8912C0.923492 20.7944 1.12688 21.7049 1.60727 22.494C1.60727 22.494 2.9892 23 12.0407 23C21.0922 23 22.3942 22.4955 22.3942 22.4955C22.873 21.7054 23.0759 20.7949 22.9745 19.8916C22.8731 18.9882 22.4724 18.1371 21.8286 17.4575ZM20.8101 21.6228L11.8965 21.6023L3.18348 21.6228C1.5728 21.0361 2.39067 18.6733 3.46394 18.1864C4.34762 17.7845 8.45581 16.7036 10.0555 16.2885L10.3485 14.9333V14.3555C8.17692 13.3743 6.85609 10.5803 6.85609 8.04C6.85609 4.90867 7.71784 2.3684 11.9952 2.3684C16.2726 2.3684 17.1328 4.90867 17.1328 8.04C17.1328 10.5803 15.8167 13.3743 13.642 14.3467V14.9333L13.9553 16.3765C15.9326 16.84 19.9844 17.8109 20.8086 18.1864C21.8818 18.6719 22.2218 21.1197 20.8101 21.6228Z" fill="#202020"/>
</svg>
