<svg width="25" height="24" viewBox="0 0 25 24" fill="none" xmlns="http://www.w3.org/2000/svg">
<path d="M9 15L10.1707 8H12L10.8653 15H9Z" fill="#3C58BF"/>
<path d="M9 15L10.5 8H12L10.868 15H9Z" fill="#293688"/>
<path d="M18 8.29493C17.424 8.0928 16.813 7.99293 16.1982 8.00039C14.2397 8.00039 12.8285 8.92134 12.8285 10.2468C12.8285 11.2414 13.8083 11.7599 14.5917 12.0877C15.3751 12.4155 15.6101 12.6405 15.6101 12.9351C15.6101 13.3769 14.9834 13.5978 14.4296 13.5978C13.7813 13.6112 13.1382 13.4853 12.5495 13.2296L12.2747 13.1186L12 14.6317C12.7149 14.8793 13.4714 15.0041 14.2332 14.9999C16.3098 14.9999 17.6813 14.0789 17.6813 12.6798C17.6813 11.9061 17.1715 11.3171 15.9964 10.8389C15.2914 10.5071 14.86 10.3235 14.86 9.9916C14.86 9.69706 15.213 9.40251 15.9964 9.40251C16.5065 9.38829 17.0139 9.47632 17.4849 9.66074L17.6813 9.73437L17.9946 8.29796L18 8.29493Z" fill="#3C58BF"/>
<path d="M18 8.29493C17.424 8.0928 16.813 7.99293 16.1982 8.00039C14.2397 8.00039 13.1815 8.92134 13.1815 10.2468C13.1789 10.6545 13.314 11.0524 13.5674 11.3833C13.8208 11.7141 14.1795 11.9608 14.5917 12.0877C15.3751 12.4196 15.6101 12.6405 15.6101 12.9351C15.6101 13.3769 14.9834 13.5978 14.4296 13.5978C13.7813 13.6112 13.1382 13.4853 12.5495 13.2296L12.2747 13.1186L12 14.6317C12.7149 14.8793 13.4714 15.0041 14.2332 14.9999C16.3098 14.9999 17.6813 14.0789 17.6813 12.6798C17.6813 11.9061 17.1715 11.3171 15.9964 10.8389C15.2914 10.5071 14.86 10.3235 14.86 9.9916C14.86 9.69706 15.213 9.40251 15.9964 9.40251C16.5065 9.38829 17.0139 9.47632 17.4849 9.66074L17.6813 9.73437L17.9946 8.29796L18 8.29493Z" fill="#293688"/>
<path d="M20.8846 8C20.4231 8 20.0765 8.0394 19.8847 8.50571L17 15H19.0766L19.4612 13.8289H21.9234L22.1541 15H24L22.3848 8.00427L20.8846 8ZM19.9996 12.6642C20.1155 12.3139 20.7687 10.6041 20.7687 10.6041C20.7687 10.6041 20.9225 10.1782 21.0384 9.90464L21.1543 10.5658C21.1543 10.5658 21.5388 12.315 21.6157 12.7036H20.0006L19.9996 12.6642Z" fill="#3C58BF"/>
<path d="M21.346 8C20.8846 8 20.5379 8.0394 20.3462 8.50571L17 15H19.0766L19.4612 13.8289H21.9234L22.1541 15H24L22.3848 8.00427L21.346 8ZM19.9996 12.6642C20.1534 12.2756 20.7687 10.6041 20.7687 10.6041C20.7687 10.6041 20.9225 10.1782 21.0384 9.90464L21.1543 10.5658C21.1543 10.5658 21.5388 12.315 21.6157 12.7036H20.0006L19.9996 12.6642Z" fill="#293688"/>
<path d="M4.91675 12.862L4.72181 11.851C4.23305 10.5209 3.26129 9.42361 2 8.77765L3.75026 15H5.84995L9 8H6.90032L4.91675 12.862Z" fill="#3C58BF"/>
<path d="M4.91675 12.862L4.72181 11.851C4.23305 10.5209 3.26129 9.42361 2 8.77765L3.75026 15H5.84995L9 8H7.28915L4.91675 12.862Z" fill="#293688"/>
<path d="M0 8L0.336263 8.07999C1.35419 8.27257 2.31218 8.73095 3.12559 9.41464C3.93899 10.0983 4.58276 10.9863 5 12L4.3285 8.60368C4.21607 8.12381 3.88083 8.00329 3.46995 8.00329L0 8Z" fill="#FFBC00"/>
<path d="M0 8C2.38859 8.60653 4.36529 10.1815 5 12L4.36529 9.13116C4.31936 8.91173 4.20552 8.7159 4.04266 8.57618C3.8798 8.43647 3.67772 8.36126 3.46995 8.36303L0 8Z" fill="#F7981D"/>
<path d="M0 8C2.38859 8.60653 4.36529 10.1815 5 12L4.55233 10.4239C4.53017 10.1705 4.44578 9.92823 4.30793 9.72212C4.17008 9.516 3.98378 9.35362 3.7684 9.25181L0 8Z" fill="#ED7C00"/>
<path d="M7.25639 12.838L5.9513 11.5329L5.33503 12.9947L5.18149 12.0345C4.6997 10.7208 3.74072 9.63678 2.49557 8.99838L4.22344 15.1411H6.29624L7.25639 12.838Z" fill="#051244"/>
<path d="M10.8267 15.1411L9.17563 13.4521L8.86856 15.1411H10.8267Z" fill="#051244"/>
<path d="M15.2416 12.7612C15.3951 12.9147 15.4719 13.0304 15.434 13.1819C15.434 13.6425 14.8199 13.8728 14.2772 13.8728C13.6418 13.8868 13.0116 13.7555 12.4347 13.4889L12.1655 13.3732L11.8963 14.9507C12.5968 15.2088 13.3382 15.3389 14.0848 15.3346C14.5924 15.3703 15.102 15.3036 15.5835 15.1387C16.0649 14.9738 16.5083 14.7139 16.8874 14.3744L15.2416 12.7612Z" fill="#051244"/>
<path d="M17.469 15.1421H19.2736L19.6574 13.9853H22.1152L22.3455 15.1421H24.188L23.5349 12.3395L21.2318 10.1131L21.3474 10.7273C21.3474 10.7273 21.7313 12.4551 21.8081 12.839H20.1959C20.3494 12.4551 20.9636 10.8041 20.9636 10.8041C20.9636 10.8041 21.1171 10.3834 21.2328 10.1131" fill="#051244"/>
</svg>
