<svg width="80" height="80" viewBox="0 0 80 80" fill="none" xmlns="http://www.w3.org/2000/svg">
<path d="M15.3239 71.4501H11.7629V28.55H15.3239V71.4501Z" fill="white"/>
<path d="M12.4829 70.73H14.6039V29.27H12.4829V70.73ZM16.0439 72.167H11.0439V27.83H16.0439V72.167Z" fill="#2E2629"/>
<path d="M69.319 71.4501H29.463V28.55H69.319V71.4501Z" fill="#FEB2A8"/>
<path d="M30.182 70.73H68.599V29.27H30.182V70.73ZM70.038 72.169H28.743V27.83H70.038V72.167V72.169Z" fill="#2E2629"/>
<path d="M69.3189 42.731H11.7629V34.131H69.3189V42.731Z" fill="white"/>
<path d="M12.0659 42.025H69.0149V34.864H12.0659V42.025ZM70.0369 43.464H11.0439V33.425H70.0379V43.466L70.0369 43.464Z" fill="#2E2629"/>
<path d="M69.532 57.012H29.463C29.2722 57.012 29.0892 56.9362 28.9543 56.8013C28.8193 56.6663 28.7435 56.4833 28.7435 56.2925C28.7435 56.1017 28.8193 55.9187 28.9543 55.7837C29.0892 55.6488 29.2722 55.573 29.463 55.573H69.532C69.7229 55.573 69.9059 55.6488 70.0408 55.7837C70.1757 55.9187 70.2515 56.1017 70.2515 56.2925C70.2515 56.4833 70.1757 56.6663 70.0408 56.8013C69.9059 56.9362 69.7229 57.012 69.532 57.012Z" fill="#2E2629"/>
<path d="M58.829 50.461H50.383C50.1921 50.461 50.0091 50.3852 49.8742 50.2502C49.7393 50.1153 49.6635 49.9323 49.6635 49.7415C49.6635 49.5506 49.7393 49.3676 49.8742 49.2327C50.0091 49.0978 50.1921 49.022 50.383 49.022H58.829C59.0198 49.022 59.2028 49.0978 59.3377 49.2327C59.4726 49.3676 59.5485 49.5506 59.5485 49.7415C59.5485 49.9323 59.4726 50.1153 59.3377 50.2502C59.2028 50.3852 59.0198 50.461 58.829 50.461Z" fill="#2E2629"/>
<path d="M58.829 59.882H50.383C50.1921 59.882 50.0091 59.8062 49.8742 59.6713C49.7393 59.5363 49.6635 59.3533 49.6635 59.1625C49.6635 58.9717 49.7393 58.7887 49.8742 58.6537C50.0091 58.5188 50.1921 58.443 50.383 58.443H58.829C59.0198 58.443 59.2028 58.5188 59.3377 58.6537C59.4726 58.7887 59.5485 58.9717 59.5485 59.1625C59.5485 59.3533 59.4726 59.5363 59.3377 59.6713C59.2028 59.8062 59.0198 59.882 58.829 59.882Z" fill="#2E2629"/>
<path d="M62.27 37.0199H32.261V18.4449H62.27V37.0199Z" fill="white"/>
<path d="M32.981 36.445H61.551V19.309H32.981V36.445ZM62.99 37.884H31.542V17.87H62.99V37.884Z" fill="#2E2629"/>
<path d="M65.4129 35.69H28.5129V32.516H65.4129V35.69Z" fill="white"/>
<path d="M29.232 35.014H64.693V33.279H29.232V35.014ZM66.132 36.453H27.793V31.84H66.136V36.453H66.132Z" fill="#2E2629"/>
<path d="M59.848 34.503H34.472V20.269H59.848V34.503Z" fill="white"/>
<path d="M35.1921 33.912H59.1291V21.116H35.1921V33.916V33.912ZM60.5681 35.351H33.7531V19.677H60.5681V35.351Z" fill="#2E2629"/>
<path d="M27.366 68.3269C27.175 68.3269 26.9919 68.2511 26.8569 68.1161C26.7219 67.981 26.646 67.7979 26.646 67.6069V39.6799C26.646 39.4891 26.7218 39.3061 26.8567 39.1712C26.9917 39.0363 27.1747 38.9604 27.3655 38.9604C27.5563 38.9604 27.7393 39.0363 27.8743 39.1712C28.0092 39.3061 28.085 39.4891 28.085 39.6799V67.6069C28.0851 67.7015 28.0666 67.7951 28.0306 67.8824C27.9945 67.9698 27.9415 68.0491 27.8748 68.116C27.808 68.1829 27.7287 68.2359 27.6414 68.2721C27.5541 68.3083 27.4605 68.3269 27.366 68.3269Z" fill="#2E2629"/>
<path d="M45.649 58.3879H22.102C21.7408 58.3879 21.3832 58.3167 21.0496 58.1784C20.716 58.04 20.4129 57.8372 20.1578 57.5816C19.9026 57.326 19.7004 57.0226 19.5627 56.6887C19.4249 56.3548 19.3543 55.9971 19.355 55.6359C19.355 54.9073 19.6444 54.2085 20.1595 53.6932C20.6746 53.1778 21.3733 52.8882 22.102 52.8879H45.649C46.3776 52.8882 47.0763 53.1778 47.5915 53.6932C48.1066 54.2085 48.396 54.9073 48.396 55.6359C48.3966 55.9971 48.3261 56.3548 48.1883 56.6887C48.0506 57.0226 47.8483 57.326 47.5932 57.5816C47.338 57.8372 47.035 58.04 46.7014 58.1784C46.3678 58.3167 46.0101 58.3879 45.649 58.3879Z" fill="white"/>
<path d="M22.1021 53.4891C21.832 53.4831 21.5635 53.5311 21.3122 53.6303C21.061 53.7295 20.8321 53.8779 20.639 54.0667C20.4459 54.2556 20.2925 54.4811 20.1877 54.7301C20.083 54.9791 20.029 55.2464 20.029 55.5166C20.029 55.7867 20.083 56.0541 20.1877 56.303C20.2925 56.552 20.4459 56.7775 20.639 56.9664C20.8321 57.1553 21.061 57.3037 21.3122 57.4029C21.5635 57.502 21.832 57.5501 22.1021 57.5441H45.6491C46.179 57.5323 46.6832 57.3135 47.0539 56.9346C47.4245 56.5556 47.632 56.0466 47.632 55.5166C47.632 54.9865 47.4245 54.4775 47.0539 54.0986C46.6832 53.7196 46.179 53.5008 45.6491 53.4891H22.1021ZM45.6491 58.9831H22.1021C21.6419 58.9909 21.1847 58.907 20.7573 58.7363C20.3299 58.5656 19.9407 58.3115 19.6125 57.9888C19.2843 57.6662 19.0237 57.2814 18.8457 56.8569C18.6678 56.4325 18.5762 55.9768 18.5762 55.5166C18.5762 55.0563 18.6678 54.6007 18.8457 54.1762C19.0237 53.7517 19.2843 53.367 19.6125 53.0443C19.9407 52.7216 20.3299 52.4675 20.7573 52.2968C21.1847 52.1261 21.6419 52.0422 22.1021 52.0501H45.6491C46.5582 52.0655 47.4249 52.4375 48.0624 53.0859C48.6999 53.7343 49.0572 54.6073 49.0572 55.5166C49.0572 56.4259 48.6999 57.2988 48.0624 57.9472C47.4249 58.5956 46.5582 58.9676 45.6491 58.9831Z" fill="#2E2629"/>
<path d="M38.0321 68.742C37.8411 68.742 37.658 68.6661 37.5229 68.5311C37.3879 68.396 37.3121 68.2129 37.3121 68.022V65.363H20.4371V68.024C20.4407 68.1207 20.4247 68.2172 20.3902 68.3076C20.3557 68.3981 20.3032 68.4806 20.2361 68.5503C20.1689 68.62 20.0884 68.6755 19.9993 68.7134C19.9102 68.7513 19.8144 68.7708 19.7176 68.7708C19.6207 68.7708 19.5249 68.7513 19.4358 68.7134C19.3467 68.6755 19.2662 68.62 19.199 68.5503C19.1319 68.4806 19.0795 68.3981 19.0449 68.3076C19.0104 68.2172 18.9945 68.1207 18.9981 68.024V63.924H38.7511V68.024C38.7512 68.1185 38.7327 68.2121 38.6966 68.2994C38.6605 68.3868 38.6076 68.4661 38.5408 68.533C38.474 68.5999 38.3947 68.6529 38.3074 68.6891C38.2201 68.7253 38.1266 68.744 38.0321 68.744V68.742Z" fill="#2E2629"/>
<path d="M44.168 54.502H23.583C23.0277 54.5022 22.4779 54.3929 21.9648 54.1805C21.4518 53.968 20.9857 53.6566 20.593 53.264C20.2004 52.8714 19.889 52.4052 19.6766 51.8922C19.4641 51.3792 19.3548 50.8293 19.355 50.274V27.972C19.3548 27.4167 19.4641 26.8668 19.6765 26.3537C19.8889 25.8407 20.2004 25.3745 20.593 24.9817C20.9856 24.589 21.4517 24.2775 21.9648 24.065C22.4778 23.8524 23.0277 23.743 23.583 23.743H44.168C45.2896 23.743 46.3652 24.1886 47.1583 24.9817C47.9514 25.7748 48.397 26.8504 48.397 27.972V50.272C48.397 50.8274 48.2876 51.3772 48.075 51.8903C47.8625 52.4033 47.551 52.8694 47.1583 53.262C46.7656 53.6547 46.2994 53.9661 45.7863 54.1785C45.2732 54.3909 44.7233 54.5002 44.168 54.5V54.502Z" fill="white"/>
<path d="M23.583 24.481C22.6527 24.4821 21.7608 24.8521 21.1029 25.5099C20.4451 26.1678 20.0751 27.0597 20.074 27.99V50.29C20.0753 51.2202 20.4455 52.112 21.1032 52.7698C21.761 53.4275 22.6528 53.7977 23.583 53.799H44.167C45.0973 53.7979 45.9892 53.4279 46.6471 52.7701C47.3049 52.1122 47.675 51.2203 47.676 50.29V27.99C47.6752 27.0596 47.3053 26.1675 46.6474 25.5096C45.9895 24.8517 45.0974 24.4818 44.167 24.481H23.583ZM44.167 55.242H23.583C22.2709 55.2404 21.0129 54.7183 20.0853 53.7903C19.1577 52.8623 18.6361 51.6041 18.635 50.292V27.99C18.6366 26.6782 19.1584 25.4206 20.086 24.493C21.0136 23.5654 22.2712 23.0436 23.583 23.042H44.167C45.4788 23.0436 46.7364 23.5654 47.664 24.493C48.5916 25.4206 49.1134 26.6782 49.115 27.99V50.29C49.1145 51.6025 48.5931 52.8611 47.6654 53.7896C46.7377 54.718 45.4795 55.2404 44.167 55.242Z" fill="#2E2629"/>
<path d="M24.457 71.446C24.1449 71.446 23.8455 71.322 23.6248 71.1012C23.404 70.8805 23.28 70.5811 23.28 70.269V69.199C23.28 68.8868 23.404 68.5874 23.6248 68.3667C23.8455 68.146 24.1449 68.022 24.457 68.022V68.022C24.7692 68.022 25.0686 68.146 25.2893 68.3667C25.51 68.5874 25.634 68.8868 25.634 69.199V70.269C25.634 70.5811 25.51 70.8805 25.2893 71.1012C25.0686 71.322 24.7692 71.446 24.457 71.446Z" fill="white"/>
<path d="M24.461 68.7419C24.3398 68.7419 24.2236 68.7901 24.1379 68.8758C24.0522 68.9615 24.004 69.0777 24.004 69.1989V70.2689C24.0011 70.3308 24.0108 70.3926 24.0325 70.4507C24.0542 70.5087 24.0874 70.5617 24.1302 70.6065C24.173 70.6514 24.2244 70.687 24.2813 70.7114C24.3383 70.7358 24.3996 70.7483 24.4615 70.7483C24.5235 70.7483 24.5848 70.7358 24.6417 70.7114C24.6987 70.687 24.7501 70.6514 24.7929 70.6065C24.8356 70.5617 24.8689 70.5087 24.8906 70.4507C24.9122 70.3926 24.9219 70.3308 24.919 70.2689V69.2029C24.9194 69.1425 24.9079 69.0827 24.885 69.0267C24.8622 68.9708 24.8285 68.92 24.786 68.8771C24.7434 68.8343 24.6928 68.8003 24.637 68.7771C24.5812 68.7539 24.5214 68.7419 24.461 68.7419ZM24.461 72.1659C23.9576 72.1659 23.4748 71.9662 23.1186 71.6105C22.7624 71.2548 22.5618 70.7723 22.561 70.2689V69.2029C22.5904 68.7199 22.803 68.2662 23.1554 67.9346C23.5079 67.6029 23.9736 67.4182 24.4575 67.4182C24.9415 67.4182 25.4072 67.6029 25.7596 67.9346C26.1121 68.2662 26.3247 68.7199 26.354 69.2029V70.2729C26.354 70.7769 26.1539 71.2601 25.7975 71.6164C25.4412 71.9728 24.9579 72.1729 24.454 72.1729L24.461 72.1659Z" fill="#2E2629"/>
<path d="M33.772 71.446C33.4597 71.446 33.1603 71.322 32.9394 71.1013C32.7185 70.8806 32.5943 70.5812 32.594 70.269V69.199C32.5943 68.8867 32.7185 68.5873 32.9394 68.3666C33.1603 68.1459 33.4597 68.022 33.772 68.022V68.022C34.0842 68.022 34.3835 68.146 34.6043 68.3667C34.825 68.5874 34.949 68.8868 34.949 69.199V70.269C34.949 70.5811 34.825 70.8805 34.6043 71.1012C34.3835 71.322 34.0842 71.446 33.772 71.446Z" fill="white"/>
<path d="M33.828 68.7419C33.7679 68.7418 33.7083 68.7535 33.6528 68.7764C33.5972 68.7993 33.5467 68.833 33.5042 68.8754C33.4616 68.9179 33.4279 68.9683 33.4049 69.0238C33.3818 69.0793 33.37 69.1388 33.37 69.1989V70.2689C33.3671 70.3308 33.3768 70.3926 33.3985 70.4507C33.4201 70.5087 33.4534 70.5617 33.4961 70.6065C33.5389 70.6514 33.5903 70.687 33.6473 70.7114C33.7042 70.7358 33.7655 70.7483 33.8275 70.7483C33.8894 70.7483 33.9507 70.7358 34.0077 70.7114C34.0646 70.687 34.116 70.6514 34.1588 70.6065C34.2016 70.5617 34.2348 70.5087 34.2565 70.4507C34.2782 70.3926 34.2879 70.3308 34.285 70.2689V69.2029C34.2855 69.1426 34.2741 69.0827 34.2513 69.0268C34.2286 68.9709 34.195 68.9201 34.1525 68.8772C34.1101 68.8343 34.0595 68.8003 34.0038 68.7771C33.9481 68.7539 33.8883 68.7419 33.828 68.7419ZM33.828 72.1659C33.3246 72.1659 32.8418 71.9662 32.4855 71.6105C32.1293 71.2548 31.9288 70.7723 31.928 70.2689V69.2029C31.9573 68.7199 32.1699 68.2662 32.5224 67.9346C32.8748 67.6029 33.3405 67.4182 33.8245 67.4182C34.3084 67.4182 34.7742 67.6029 35.1266 67.9346C35.479 68.2662 35.6916 68.7199 35.721 69.2029V70.2729C35.721 70.7769 35.5208 71.2601 35.1645 71.6164C34.8082 71.9728 34.3249 72.1729 33.821 72.1729L33.828 72.1659Z" fill="#2E2629"/>
<path d="M27.428 70.138C27.1158 70.138 26.8164 70.014 26.5957 69.7933C26.375 69.5725 26.251 69.2731 26.251 68.961V67.891C26.251 67.5788 26.375 67.2795 26.5957 67.0587C26.8164 66.838 27.1158 66.714 27.428 66.714V66.714C27.7401 66.7143 28.0393 66.8383 28.2599 67.059C28.4806 67.2797 28.6047 67.5789 28.605 67.891V68.961C28.6047 69.2731 28.4806 69.5723 28.2599 69.793C28.0393 70.0136 27.7401 70.1377 27.428 70.138Z" fill="white"/>
<path d="M27.532 67.434C27.4107 67.434 27.2943 67.4821 27.2085 67.5677C27.1226 67.6534 27.0742 67.7697 27.074 67.891V68.961C27.074 69.0211 27.0858 69.0807 27.1088 69.1362C27.1318 69.1918 27.1656 69.2423 27.2081 69.2848C27.2506 69.3273 27.3011 69.3611 27.3567 69.3841C27.4123 69.4071 27.4718 69.419 27.532 69.419C27.5921 69.419 27.6517 69.4071 27.7072 69.3841C27.7628 69.3611 27.8133 69.3273 27.8558 69.2848C27.8983 69.2423 27.9321 69.1918 27.9551 69.1362C27.9781 69.0807 27.99 69.0211 27.99 68.961V67.895C27.9904 67.8346 27.9788 67.7747 27.956 67.7188C27.9331 67.6629 27.8994 67.612 27.8569 67.5692C27.8143 67.5263 27.7637 67.4923 27.7079 67.4691C27.6522 67.4459 27.5924 67.434 27.532 67.434ZM27.532 70.858C27.0286 70.858 26.5457 70.6582 26.1895 70.3025C25.8333 69.9468 25.6328 69.4643 25.632 68.961V67.895C25.6592 67.4103 25.871 66.9544 26.2237 66.621C26.5765 66.2875 27.0435 66.1017 27.529 66.1017C28.0144 66.1017 28.4814 66.2875 28.8342 66.621C29.1869 66.9544 29.3987 67.4103 29.426 67.895V68.965C29.426 69.4689 29.2258 69.9521 28.8695 70.3085C28.5131 70.6648 28.0299 70.865 27.526 70.865L27.532 70.858Z" fill="#2E2629"/>
<path d="M15.323 46.882C15.1484 46.8816 14.9799 46.8177 14.8487 46.7024C14.7176 46.5871 14.6328 46.4281 14.61 46.255L11 18.481L23.009 8H44.154C44.3448 8 44.5278 8.0758 44.6628 8.21074C44.7977 8.34567 44.8735 8.52868 44.8735 8.7195C44.8735 8.91032 44.7977 9.09333 44.6628 9.22826C44.5278 9.3632 44.3448 9.439 44.154 9.439H23.55L12.526 19.058L16.037 46.069C16.0492 46.1628 16.0428 46.258 16.0182 46.3493C15.9937 46.4406 15.9513 46.5262 15.8936 46.6011C15.836 46.6761 15.7641 46.7389 15.6822 46.7861C15.6002 46.8332 15.5098 46.8638 15.416 46.876C15.3851 46.8798 15.3541 46.8818 15.323 46.882Z" fill="#2E2629"/>
<path d="M38.08 12.905H21.88V8.71899H38.08V12.905Z" fill="white"/>
<path d="M22.729 12.186H37.49V9.439H22.729V12.186ZM38.929 13.625H21.29V8H38.924V13.625H38.929Z" fill="#2E2629"/>
</svg>
